<svg xmlns="http://www.w3.org/2000/svg" xmlns:xlink="http://www.w3.org/1999/xlink" width="400" zoomAndPan="magnify" viewBox="0 0 300 225" height="300" preserveAspectRatio="xMidYMid meet" version="1.0"><defs><g/><clipPath id="177b78a47d"><path d="M 9.109375 61.992188 L 120.726562 61.992188 L 120.726562 167.726562 L 9.109375 167.726562 Z M 9.109375 61.992188 " clip-rule="nonzero"/></clipPath><clipPath id="ebe3abe07b"><path d="M 34 98 L 274.328125 98 L 274.328125 150 L 34 150 Z M 34 98 " clip-rule="nonzero"/></clipPath></defs><rect x="-30" width="360" fill="#ffffff" y="-22.5" height="270" fill-opacity="1"/><rect x="-30" width="360" fill="#ffffff" y="-22.5" height="270" fill-opacity="1"/><g clip-path="url(#177b78a47d)"><path fill="#004aad" d="M 8.847656 93.609375 C 8.949219 89.742188 9.53125 85.8125 10.785156 81.964844 C 11.417969 80.046875 12.21875 78.152344 13.207031 76.324219 C 14.203125 74.5 15.390625 72.746094 16.769531 71.128906 C 18.148438 69.515625 19.71875 68.03125 21.433594 66.753906 C 22.292969 66.113281 23.1875 65.523438 24.101562 64.984375 C 24.335938 64.847656 24.554688 64.71875 24.816406 64.574219 C 25.066406 64.4375 25.351562 64.285156 25.519531 64.199219 L 25.808594 64.050781 L 25.878906 64.011719 L 26.039062 63.933594 L 26.25 63.835938 C 26.53125 63.710938 26.8125 63.574219 27.097656 63.460938 C 29.386719 62.511719 31.8125 62.078125 34.117188 62 C 36.421875 61.933594 38.617188 62.210938 40.671875 62.679688 C 44.789062 63.621094 48.402344 65.230469 51.765625 67.0625 C 55.125 68.894531 58.21875 71 61.164062 73.234375 C 62.480469 74.238281 63.757812 75.28125 65.015625 76.351562 C 65.222656 76.109375 65.429688 75.871094 65.640625 75.636719 C 67.328125 73.765625 69.199219 72.113281 71.191406 70.671875 C 75.179688 67.804688 79.632812 65.761719 84.296875 64.550781 C 86.632812 63.949219 89.023438 63.558594 91.441406 63.402344 C 93.859375 63.257812 96.308594 63.335938 98.734375 63.71875 C 99.945312 63.90625 101.152344 64.167969 102.34375 64.507812 L 102.789062 64.632812 L 103.261719 64.78125 C 103.609375 64.886719 103.816406 64.96875 104.078125 65.058594 L 104.171875 65.089844 C 104.28125 65.125 104.21875 65.105469 104.25 65.117188 L 104.277344 65.128906 L 104.554688 65.230469 L 104.992188 65.398438 C 105.285156 65.507812 105.574219 65.636719 105.863281 65.761719 C 107.015625 66.265625 108.144531 66.847656 109.214844 67.535156 C 110.285156 68.222656 111.296875 69 112.238281 69.851562 C 114.125 71.554688 115.679688 73.566406 116.882812 75.703125 C 118.089844 77.839844 118.941406 80.105469 119.527344 82.375 C 119.820312 83.511719 120.050781 84.652344 120.230469 85.792969 C 120.40625 86.929688 120.507812 88.074219 120.578125 89.207031 C 120.714844 91.476562 120.667969 93.726562 120.46875 95.949219 C 120.257812 98.167969 119.925781 100.355469 119.453125 102.503906 C 118.972656 104.652344 118.386719 106.765625 117.667969 108.828125 C 116.949219 110.890625 116.117188 112.90625 115.144531 114.84375 C 114.183594 116.785156 113.070312 118.652344 111.792969 120.375 C 112.671875 118.417969 113.367188 116.410156 113.953125 114.378906 C 114.523438 112.34375 114.996094 110.292969 115.339844 108.226562 C 115.6875 106.164062 115.945312 104.089844 116.070312 102.019531 C 116.210938 99.953125 116.238281 97.886719 116.136719 95.84375 C 116.03125 93.800781 115.832031 91.78125 115.453125 89.820312 C 115.078125 87.859375 114.5625 85.953125 113.875 84.15625 C 113.191406 82.359375 112.300781 80.695312 111.253906 79.214844 C 110.207031 77.730469 108.976562 76.449219 107.578125 75.429688 C 106.179688 74.40625 104.644531 73.609375 102.984375 73.054688 C 102.777344 72.988281 102.574219 72.914062 102.359375 72.859375 L 102.042969 72.765625 L 101.882812 72.71875 L 101.84375 72.707031 L 101.824219 72.703125 C 101.839844 72.707031 101.761719 72.683594 101.855469 72.714844 L 101.757812 72.6875 C 101.511719 72.625 101.210938 72.542969 101.039062 72.511719 L 100.746094 72.445312 L 100.414062 72.382812 C 99.535156 72.210938 98.640625 72.097656 97.734375 72.035156 C 95.929688 71.90625 94.089844 71.96875 92.265625 72.21875 C 90.441406 72.464844 88.625 72.878906 86.867188 73.460938 C 85.101562 74.039062 83.390625 74.765625 81.765625 75.636719 C 80.136719 76.503906 78.597656 77.511719 77.183594 78.636719 C 75.777344 79.765625 74.484375 81.007812 73.378906 82.355469 C 72.269531 83.699219 71.335938 85.136719 70.617188 86.636719 L 67.625 92.921875 L 62.265625 88.015625 L 61.867188 87.652344 L 61.421875 87.253906 L 60.503906 86.453125 C 59.886719 85.917969 59.257812 85.386719 58.621094 84.871094 C 57.347656 83.828125 56.039062 82.828125 54.71875 81.863281 C 52.078125 79.929688 49.34375 78.171875 46.566406 76.6875 C 45.179688 75.949219 43.777344 75.292969 42.382812 74.734375 C 41.6875 74.457031 40.992188 74.203125 40.304688 73.980469 C 39.613281 73.765625 38.929688 73.578125 38.257812 73.425781 C 37.582031 73.273438 36.925781 73.167969 36.289062 73.097656 C 35.648438 73.027344 35.027344 72.992188 34.4375 73.011719 C 33.261719 73.050781 32.203125 73.25 31.265625 73.632812 C 31.144531 73.679688 31.035156 73.738281 30.917969 73.785156 L 30.828125 73.824219 L 30.808594 73.832031 C 30.789062 73.84375 30.910156 73.78125 30.839844 73.816406 L 30.769531 73.851562 L 30.472656 73.996094 C 30.25 74.105469 30.152344 74.160156 30.015625 74.230469 C 29.894531 74.292969 29.738281 74.382812 29.59375 74.464844 C 29.003906 74.796875 28.433594 75.160156 27.886719 75.550781 C 26.785156 76.328125 25.769531 77.21875 24.855469 78.230469 C 23.933594 79.230469 23.101562 80.339844 22.375 81.546875 C 21.636719 82.75 21.003906 84.046875 20.464844 85.410156 C 19.375 88.136719 18.691406 91.132812 18.335938 94.222656 C 18.164062 95.765625 18.070312 97.335938 18.066406 98.914062 C 18.0625 99.703125 18.078125 100.496094 18.113281 101.289062 L 18.160156 102.179688 C 18.164062 102.207031 18.148438 102.09375 18.15625 102.160156 L 18.160156 102.199219 L 18.171875 102.28125 L 18.191406 102.445312 L 18.296875 103.417969 L 18.335938 103.695312 C 18.433594 104.421875 18.554688 105.226562 18.699219 106.007812 C 18.839844 106.789062 19.003906 107.574219 19.191406 108.355469 C 19.5625 109.914062 20.015625 111.464844 20.542969 113.003906 C 21.070312 114.539062 21.671875 116.0625 22.335938 117.566406 C 22.988281 119.074219 23.710938 120.566406 24.484375 122.035156 C 26.03125 124.980469 27.8125 127.832031 29.714844 130.625 C 31.617188 133.417969 33.699219 136.113281 35.871094 138.757812 C 38.035156 141.402344 40.335938 143.957031 42.6875 146.476562 C 45.042969 148.996094 47.492188 151.4375 49.984375 153.851562 C 52.484375 156.253906 55.03125 158.625 57.625 160.949219 C 60.210938 163.285156 62.84375 165.566406 65.476562 167.867188 L 65.9375 167.90625 L 65.460938 167.945312 L 65.449219 167.945312 L 65.4375 167.9375 C 62.441406 166.128906 59.5 164.230469 56.589844 162.277344 C 53.6875 160.3125 50.816406 158.289062 48.007812 156.167969 C 45.195312 154.058594 42.445312 151.851562 39.753906 149.554688 C 37.0625 147.261719 34.460938 144.847656 31.933594 142.339844 C 29.40625 139.828125 26.996094 137.179688 24.707031 134.40625 C 22.40625 131.632812 20.277344 128.695312 18.328125 125.605469 C 17.351562 124.0625 16.425781 122.472656 15.5625 120.84375 C 14.707031 119.210938 13.914062 117.535156 13.195312 115.816406 C 12.476562 114.097656 11.832031 112.335938 11.273438 110.535156 C 10.996094 109.636719 10.738281 108.726562 10.507812 107.804688 C 10.277344 106.886719 10.074219 105.972656 9.890625 104.980469 L 9.820312 104.617188 L 9.761719 104.292969 L 9.652344 103.648438 L 9.414062 102.207031 C 9.265625 101.265625 9.144531 100.320312 9.054688 99.367188 C 8.871094 97.464844 8.792969 95.542969 8.847656 93.609375 " fill-opacity="1" fill-rule="nonzero"/></g><g clip-path="url(#ebe3abe07b)"><path fill="#004aad" d="M 137.96875 149.816406 C 137.996094 149.816406 138.027344 149.816406 138.054688 149.8125 C 138.878906 149.773438 139.550781 149.179688 139.691406 148.367188 L 144.28125 121.816406 L 147.46875 132 C 148.5 135.308594 151.527344 137.53125 154.992188 137.53125 L 273.261719 137.53125 C 274.003906 137.53125 274.609375 136.929688 274.609375 136.183594 C 274.609375 135.441406 274.003906 134.835938 273.261719 134.835938 L 154.992188 134.835938 C 152.710938 134.835938 150.71875 133.375 150.039062 131.195312 L 145.71875 117.382812 C 145.472656 116.597656 144.726562 116.089844 143.90625 116.140625 C 143.082031 116.195312 142.414062 116.800781 142.273438 117.609375 L 137.757812 143.726562 L 125.769531 100.113281 C 125.492188 99.101562 124.601562 98.441406 123.554688 98.472656 C 122.503906 98.5 121.652344 99.207031 121.425781 100.230469 L 114.261719 134.175781 L 109.640625 123.695312 L 109.527344 123.558594 C 108.492188 122.277344 106.957031 121.496094 105.3125 121.417969 C 103.667969 121.339844 102.0625 121.964844 100.910156 123.136719 L 97.421875 126.6875 C 97.40625 126.703125 97.367188 126.738281 97.296875 126.722656 C 97.222656 126.707031 97.207031 126.660156 97.199219 126.636719 L 91.335938 109.992188 C 91.058594 109.203125 90.304688 108.675781 89.46875 108.707031 C 88.628906 108.726562 87.902344 109.28125 87.664062 110.085938 L 77.101562 145.683594 L 73.605469 136.414062 C 72.363281 133.125 69.167969 130.917969 65.65625 130.917969 L 35.613281 130.917969 C 34.867188 130.917969 34.265625 131.519531 34.265625 132.265625 C 34.265625 133.007812 34.867188 133.609375 35.613281 133.609375 L 65.65625 133.609375 C 68.054688 133.609375 70.238281 135.121094 71.085938 137.363281 L 75.023438 147.808594 C 75.375 148.738281 76.238281 149.308594 77.230469 149.277344 C 78.222656 149.242188 79.046875 148.605469 79.328125 147.652344 L 89.578125 113.109375 L 94.65625 127.535156 C 94.984375 128.460938 95.753906 129.140625 96.710938 129.355469 C 97.667969 129.566406 98.652344 129.277344 99.34375 128.578125 L 102.832031 125.027344 C 103.457031 124.390625 104.289062 124.066406 105.179688 124.109375 C 106.015625 124.148438 106.773438 124.507812 107.324219 125.125 L 112.730469 137.382812 C 113.070312 138.160156 113.867188 138.621094 114.714844 138.535156 C 115.558594 138.445312 116.242188 137.828125 116.417969 137 L 123.671875 102.644531 L 136.285156 148.53125 C 136.496094 149.296875 137.179688 149.816406 137.96875 149.816406 " fill-opacity="1" fill-rule="nonzero"/></g><g fill="#004aad" fill-opacity="1"><g transform="translate(154.960484, 135.742533)"><g><path d="M 58.921875 -0.875 C 59.066406 -0.875 59.140625 -0.726562 59.140625 -0.4375 C 59.140625 -0.144531 59.066406 0 58.921875 0 C 57.421875 0 56.234375 -0.0234375 55.359375 -0.078125 L 50.359375 -0.140625 L 45.71875 -0.078125 C 44.9375 -0.0234375 43.847656 0 42.453125 0 C 42.347656 0 42.296875 -0.144531 42.296875 -0.4375 C 42.296875 -0.726562 42.347656 -0.875 42.453125 -0.875 C 44.097656 -0.875 45.316406 -1.003906 46.109375 -1.265625 C 46.910156 -1.535156 47.441406 -2.007812 47.703125 -2.6875 C 47.972656 -3.363281 48.0625 -4.425781 47.96875 -5.875 L 46.65625 -38.890625 L 30.109375 -0.515625 C 30.015625 -0.316406 29.820312 -0.21875 29.53125 -0.21875 C 29.289062 -0.21875 29.070312 -0.316406 28.875 -0.515625 L 11.03125 -38.453125 L 10.375 -7.90625 C 10.320312 -5.34375 10.753906 -3.53125 11.671875 -2.46875 C 12.597656 -1.40625 14.222656 -0.875 16.546875 -0.875 C 16.640625 -0.875 16.6875 -0.726562 16.6875 -0.4375 C 16.6875 -0.144531 16.640625 0 16.546875 0 C 15.191406 0 14.148438 -0.0234375 13.421875 -0.078125 L 9.5 -0.140625 L 5.734375 -0.078125 C 5.054688 -0.0234375 4.085938 0 2.828125 0 C 2.734375 0 2.6875 -0.144531 2.6875 -0.4375 C 2.6875 -0.726562 2.734375 -0.875 2.828125 -0.875 C 4.859375 -0.875 6.320312 -1.414062 7.21875 -2.5 C 8.113281 -3.59375 8.585938 -5.394531 8.640625 -7.90625 L 9.28125 -41.578125 C 7.832031 -43.515625 5.851562 -44.484375 3.34375 -44.484375 C 3.238281 -44.484375 3.1875 -44.625 3.1875 -44.90625 C 3.1875 -45.195312 3.238281 -45.34375 3.34375 -45.34375 L 6.015625 -45.28125 C 6.503906 -45.226562 7.179688 -45.203125 8.046875 -45.203125 C 8.921875 -45.203125 9.660156 -45.222656 10.265625 -45.265625 C 10.867188 -45.316406 11.34375 -45.34375 11.6875 -45.34375 C 12.3125 -45.34375 12.828125 -45.113281 13.234375 -44.65625 C 13.648438 -44.195312 14.242188 -43.171875 15.015625 -41.578125 L 31.203125 -7.46875 L 47.015625 -43.53125 C 47.546875 -44.738281 48.273438 -45.34375 49.203125 -45.34375 C 49.441406 -45.34375 49.789062 -45.316406 50.25 -45.265625 C 50.707031 -45.222656 51.320312 -45.203125 52.09375 -45.203125 L 55.515625 -45.28125 C 56.046875 -45.320312 56.84375 -45.34375 57.90625 -45.34375 C 58.050781 -45.34375 58.125 -45.195312 58.125 -44.90625 C 58.125 -44.625 58.050781 -44.484375 57.90625 -44.484375 C 55.488281 -44.484375 53.757812 -44.128906 52.71875 -43.421875 C 51.675781 -42.722656 51.179688 -41.40625 51.234375 -39.46875 L 52.6875 -5.875 C 52.726562 -4.375 52.90625 -3.285156 53.21875 -2.609375 C 53.539062 -1.929688 54.109375 -1.472656 54.921875 -1.234375 C 55.742188 -0.992188 57.078125 -0.875 58.921875 -0.875 Z M 58.921875 -0.875 "/></g></g></g><g fill="#004aad" fill-opacity="1"><g transform="translate(215.60809, 135.742533)"><g><path d="M 24.09375 -25.546875 C 27.914062 -25.253906 31 -23.984375 33.34375 -21.734375 C 35.6875 -19.484375 36.859375 -16.6875 36.859375 -13.34375 C 36.859375 -10.78125 36.226562 -8.457031 34.96875 -6.375 C 33.71875 -4.300781 31.988281 -2.671875 29.78125 -1.484375 C 27.582031 -0.296875 25.128906 0.296875 22.421875 0.296875 C 20.828125 0.296875 19.085938 0.222656 17.203125 0.078125 C 16.523438 0.0234375 15.722656 -0.0195312 14.796875 -0.0625 C 13.878906 -0.113281 12.863281 -0.140625 11.75 -0.140625 L 6.828125 -0.078125 C 5.953125 -0.0234375 4.71875 0 3.125 0 C 3.019531 0 2.96875 -0.144531 2.96875 -0.4375 C 2.96875 -0.726562 3.019531 -0.875 3.125 -0.875 C 4.914062 -0.875 6.242188 -1.003906 7.109375 -1.265625 C 7.984375 -1.535156 8.585938 -2.007812 8.921875 -2.6875 C 9.265625 -3.363281 9.4375 -4.425781 9.4375 -5.875 L 9.4375 -39.46875 C 9.4375 -40.925781 9.273438 -41.992188 8.953125 -42.671875 C 8.640625 -43.347656 8.0625 -43.816406 7.21875 -44.078125 C 6.375 -44.347656 5.054688 -44.484375 3.265625 -44.484375 C 3.117188 -44.484375 3.046875 -44.625 3.046875 -44.90625 C 3.046875 -45.195312 3.117188 -45.34375 3.265625 -45.34375 L 6.828125 -45.28125 C 8.859375 -45.1875 10.5 -45.140625 11.75 -45.140625 C 12.625 -45.140625 13.4375 -45.160156 14.1875 -45.203125 C 14.9375 -45.253906 15.578125 -45.300781 16.109375 -45.34375 C 17.609375 -45.488281 19.007812 -45.5625 20.3125 -45.5625 C 24.375 -45.5625 27.421875 -44.675781 29.453125 -42.90625 C 31.492188 -41.144531 32.515625 -38.835938 32.515625 -35.984375 C 32.515625 -33.671875 31.765625 -31.601562 30.265625 -29.78125 C 28.765625 -27.96875 26.707031 -26.554688 24.09375 -25.546875 Z M 18.796875 -44.484375 C 17.535156 -44.484375 16.585938 -44.375 15.953125 -44.15625 C 15.328125 -43.9375 14.867188 -43.472656 14.578125 -42.765625 C 14.296875 -42.066406 14.15625 -40.921875 14.15625 -39.328125 L 14.15625 -25.546875 L 17.421875 -25.46875 C 20.953125 -25.46875 23.5625 -26.375 25.25 -28.1875 C 26.945312 -30 27.796875 -32.40625 27.796875 -35.40625 C 27.796875 -38.113281 27.054688 -40.300781 25.578125 -41.96875 C 24.097656 -43.644531 21.835938 -44.484375 18.796875 -44.484375 Z M 21.328125 -1.015625 C 24.859375 -1.015625 27.484375 -1.921875 29.203125 -3.734375 C 30.921875 -5.546875 31.78125 -8.144531 31.78125 -11.53125 C 31.78125 -15.207031 30.703125 -18.179688 28.546875 -20.453125 C 26.398438 -22.734375 23.441406 -23.898438 19.671875 -23.953125 C 18.117188 -23.992188 16.28125 -23.941406 14.15625 -23.796875 L 14.15625 -5.875 C 14.15625 -4.613281 14.332031 -3.644531 14.6875 -2.96875 C 15.050781 -2.289062 15.753906 -1.796875 16.796875 -1.484375 C 17.835938 -1.171875 19.347656 -1.015625 21.328125 -1.015625 Z M 21.328125 -1.015625 "/></g></g></g><g fill="#004aad" fill-opacity="1"><g transform="translate(256.08819, 135.742533)"><g><path d="M 14.4375 -5.875 C 14.4375 -4.425781 14.582031 -3.347656 14.875 -2.640625 C 15.164062 -1.941406 15.734375 -1.472656 16.578125 -1.234375 C 17.421875 -0.992188 18.765625 -0.875 20.609375 -0.875 C 20.753906 -0.875 20.828125 -0.726562 20.828125 -0.4375 C 20.828125 -0.144531 20.753906 0 20.609375 0 C 19.160156 0 18 -0.0234375 17.125 -0.078125 L 11.96875 -0.140625 L 6.96875 -0.078125 C 6.09375 -0.0234375 4.90625 0 3.40625 0 C 3.257812 0 3.1875 -0.144531 3.1875 -0.4375 C 3.1875 -0.726562 3.257812 -0.875 3.40625 -0.875 C 5.25 -0.875 6.59375 -0.992188 7.4375 -1.234375 C 8.28125 -1.472656 8.859375 -1.941406 9.171875 -2.640625 C 9.492188 -3.347656 9.65625 -4.425781 9.65625 -5.875 L 9.65625 -39.46875 C 9.65625 -40.925781 9.492188 -41.992188 9.171875 -42.671875 C 8.859375 -43.347656 8.28125 -43.816406 7.4375 -44.078125 C 6.59375 -44.347656 5.25 -44.484375 3.40625 -44.484375 C 3.257812 -44.484375 3.1875 -44.625 3.1875 -44.90625 C 3.1875 -45.195312 3.257812 -45.34375 3.40625 -45.34375 L 6.96875 -45.28125 C 9 -45.1875 10.664062 -45.140625 11.96875 -45.140625 C 13.425781 -45.140625 15.171875 -45.1875 17.203125 -45.28125 L 20.609375 -45.34375 C 20.753906 -45.34375 20.828125 -45.195312 20.828125 -44.90625 C 20.828125 -44.625 20.753906 -44.484375 20.609375 -44.484375 C 18.816406 -44.484375 17.5 -44.335938 16.65625 -44.046875 C 15.8125 -43.753906 15.226562 -43.253906 14.90625 -42.546875 C 14.59375 -41.847656 14.4375 -40.773438 14.4375 -39.328125 Z M 14.4375 -5.875 "/></g></g></g><g fill="#004aad" fill-opacity="1"><g transform="translate(94.535137, 161.561593)"><g><path d="M 9.859375 -8.78125 C 9.878906 -8.78125 9.890625 -8.75 9.890625 -8.6875 C 9.890625 -8.632812 9.878906 -8.609375 9.859375 -8.609375 C 9.609375 -8.609375 9.421875 -8.582031 9.296875 -8.53125 C 9.171875 -8.476562 9.070312 -8.382812 9 -8.25 C 8.9375 -8.125 8.878906 -7.921875 8.828125 -7.640625 L 7.671875 -1.140625 C 7.640625 -0.960938 7.625 -0.8125 7.625 -0.6875 C 7.625 -0.476562 7.675781 -0.335938 7.78125 -0.265625 C 7.894531 -0.203125 8.09375 -0.171875 8.375 -0.171875 C 8.40625 -0.171875 8.421875 -0.140625 8.421875 -0.078125 C 8.421875 -0.0234375 8.40625 0 8.375 0 C 8.132812 0 7.941406 -0.00390625 7.796875 -0.015625 L 6.84375 -0.03125 L 5.90625 -0.015625 C 5.75 -0.00390625 5.53125 0 5.25 0 C 5.226562 0 5.21875 -0.0234375 5.21875 -0.078125 C 5.21875 -0.140625 5.226562 -0.171875 5.25 -0.171875 C 5.507812 -0.171875 5.703125 -0.191406 5.828125 -0.234375 C 5.960938 -0.285156 6.054688 -0.375 6.109375 -0.5 C 6.171875 -0.632812 6.234375 -0.847656 6.296875 -1.140625 L 6.859375 -4.375 L 3.1875 -4.375 L 2.609375 -1.140625 C 2.578125 -0.960938 2.5625 -0.800781 2.5625 -0.65625 C 2.5625 -0.457031 2.613281 -0.328125 2.71875 -0.265625 C 2.820312 -0.203125 3.015625 -0.171875 3.296875 -0.171875 C 3.328125 -0.171875 3.34375 -0.140625 3.34375 -0.078125 C 3.34375 -0.0234375 3.328125 0 3.296875 0 C 3.023438 0 2.8125 -0.00390625 2.65625 -0.015625 L 1.71875 -0.03125 L 0.8125 -0.015625 C 0.664062 -0.00390625 0.457031 0 0.1875 0 C 0.15625 0 0.140625 -0.0234375 0.140625 -0.078125 C 0.140625 -0.140625 0.15625 -0.171875 0.1875 -0.171875 C 0.445312 -0.171875 0.640625 -0.191406 0.765625 -0.234375 C 0.890625 -0.285156 0.984375 -0.375 1.046875 -0.5 C 1.117188 -0.632812 1.179688 -0.847656 1.234375 -1.140625 L 2.390625 -7.640625 C 2.421875 -7.878906 2.4375 -8.03125 2.4375 -8.09375 C 2.4375 -8.289062 2.378906 -8.425781 2.265625 -8.5 C 2.160156 -8.570312 1.96875 -8.609375 1.6875 -8.609375 C 1.664062 -8.609375 1.65625 -8.632812 1.65625 -8.6875 C 1.65625 -8.75 1.664062 -8.78125 1.6875 -8.78125 L 2.3125 -8.765625 C 2.6875 -8.742188 2.988281 -8.734375 3.21875 -8.734375 C 3.4375 -8.734375 3.742188 -8.742188 4.140625 -8.765625 L 4.796875 -8.78125 C 4.816406 -8.78125 4.828125 -8.75 4.828125 -8.6875 C 4.828125 -8.632812 4.816406 -8.609375 4.796875 -8.609375 C 4.546875 -8.609375 4.351562 -8.578125 4.21875 -8.515625 C 4.09375 -8.460938 3.992188 -8.367188 3.921875 -8.234375 C 3.859375 -8.097656 3.804688 -7.890625 3.765625 -7.609375 L 3.265625 -4.765625 L 6.921875 -4.765625 L 7.4375 -7.609375 C 7.457031 -7.796875 7.46875 -7.953125 7.46875 -8.078125 C 7.46875 -8.285156 7.414062 -8.425781 7.3125 -8.5 C 7.207031 -8.570312 7.019531 -8.609375 6.75 -8.609375 C 6.726562 -8.609375 6.71875 -8.632812 6.71875 -8.6875 C 6.71875 -8.75 6.726562 -8.78125 6.75 -8.78125 L 7.390625 -8.765625 C 7.765625 -8.742188 8.066406 -8.734375 8.296875 -8.734375 C 8.535156 -8.734375 8.84375 -8.742188 9.21875 -8.765625 Z M 9.859375 -8.78125 "/></g></g></g><g fill="#004aad" fill-opacity="1"><g transform="translate(108.227609, 161.561593)"><g><path d="M 3.796875 -5.609375 C 4.148438 -5.609375 4.425781 -5.546875 4.625 -5.421875 C 4.820312 -5.296875 4.921875 -5.128906 4.921875 -4.921875 C 4.921875 -4.492188 4.609375 -4.09375 3.984375 -3.71875 C 3.359375 -3.351562 2.609375 -3.085938 1.734375 -2.921875 C 1.703125 -2.710938 1.6875 -2.507812 1.6875 -2.3125 C 1.6875 -1.75 1.800781 -1.296875 2.03125 -0.953125 C 2.269531 -0.617188 2.617188 -0.453125 3.078125 -0.453125 C 3.273438 -0.453125 3.488281 -0.484375 3.71875 -0.546875 C 3.945312 -0.617188 4.15625 -0.734375 4.34375 -0.890625 L 4.359375 -0.890625 C 4.378906 -0.890625 4.398438 -0.875 4.421875 -0.84375 C 4.453125 -0.8125 4.457031 -0.785156 4.4375 -0.765625 C 4.101562 -0.441406 3.75 -0.203125 3.375 -0.046875 C 3 0.0976562 2.625 0.171875 2.25 0.171875 C 1.601562 0.171875 1.117188 -0.0234375 0.796875 -0.421875 C 0.472656 -0.816406 0.3125 -1.3125 0.3125 -1.90625 C 0.3125 -2.113281 0.332031 -2.34375 0.375 -2.59375 C 0.46875 -3.101562 0.675781 -3.585938 1 -4.046875 C 1.320312 -4.503906 1.726562 -4.878906 2.21875 -5.171875 C 2.707031 -5.460938 3.234375 -5.609375 3.796875 -5.609375 Z M 3.5 -4.546875 C 3.507812 -4.585938 3.515625 -4.644531 3.515625 -4.71875 C 3.515625 -4.875 3.472656 -4.992188 3.390625 -5.078125 C 3.304688 -5.171875 3.195312 -5.21875 3.0625 -5.21875 C 2.757812 -5.21875 2.492188 -5.023438 2.265625 -4.640625 C 2.035156 -4.265625 1.863281 -3.765625 1.75 -3.140625 C 2.832031 -3.421875 3.414062 -3.890625 3.5 -4.546875 Z M 3.5 -4.546875 "/></g></g></g><g fill="#004aad" fill-opacity="1"><g transform="translate(117.454551, 161.561593)"><g><path d="M 5.828125 -1.078125 C 5.835938 -1.085938 5.851562 -1.09375 5.875 -1.09375 C 5.894531 -1.09375 5.914062 -1.078125 5.9375 -1.046875 C 5.957031 -1.015625 5.957031 -0.988281 5.9375 -0.96875 C 5.34375 -0.238281 4.820312 0.125 4.375 0.125 C 4.125 0.125 3.941406 0.0546875 3.828125 -0.078125 C 3.722656 -0.210938 3.671875 -0.425781 3.671875 -0.71875 C 3.671875 -0.875 3.679688 -1.050781 3.703125 -1.25 L 3.875 -2.203125 C 3.519531 -1.453125 3.097656 -0.863281 2.609375 -0.4375 C 2.117188 -0.0195312 1.640625 0.1875 1.171875 0.1875 C 0.878906 0.1875 0.644531 0.0976562 0.46875 -0.078125 C 0.300781 -0.253906 0.21875 -0.523438 0.21875 -0.890625 C 0.21875 -1.515625 0.425781 -2.195312 0.84375 -2.9375 C 1.257812 -3.6875 1.773438 -4.316406 2.390625 -4.828125 C 3.003906 -5.347656 3.582031 -5.609375 4.125 -5.609375 C 4.289062 -5.609375 4.46875 -5.578125 4.65625 -5.515625 C 4.84375 -5.453125 5 -5.359375 5.125 -5.234375 C 5.300781 -5.367188 5.445312 -5.53125 5.5625 -5.71875 C 5.582031 -5.738281 5.601562 -5.75 5.625 -5.75 C 5.644531 -5.75 5.671875 -5.738281 5.703125 -5.71875 C 5.734375 -5.695312 5.742188 -5.679688 5.734375 -5.671875 L 4.921875 -1.25 C 4.890625 -1.125 4.875 -1.015625 4.875 -0.921875 C 4.875 -0.703125 4.941406 -0.59375 5.078125 -0.59375 C 5.253906 -0.59375 5.503906 -0.753906 5.828125 -1.078125 Z M 2.0625 -0.84375 C 2.34375 -0.84375 2.628906 -0.988281 2.921875 -1.28125 C 3.222656 -1.582031 3.484375 -1.941406 3.703125 -2.359375 C 3.921875 -2.785156 4.0625 -3.179688 4.125 -3.546875 C 4.15625 -3.710938 4.171875 -3.851562 4.171875 -3.96875 C 4.171875 -4.269531 4.101562 -4.503906 3.96875 -4.671875 C 3.832031 -4.835938 3.644531 -4.921875 3.40625 -4.921875 C 2.96875 -4.921875 2.582031 -4.6875 2.25 -4.21875 C 1.914062 -3.757812 1.6875 -3.160156 1.5625 -2.421875 C 1.507812 -2.117188 1.484375 -1.890625 1.484375 -1.734375 C 1.484375 -1.429688 1.535156 -1.207031 1.640625 -1.0625 C 1.742188 -0.914062 1.882812 -0.84375 2.0625 -0.84375 Z M 2.0625 -0.84375 "/></g></g></g><g fill="#004aad" fill-opacity="1"><g transform="translate(127.903197, 161.561593)"><g><path d="M 1.328125 0.125 C 0.867188 0.125 0.640625 -0.140625 0.640625 -0.671875 C 0.640625 -0.859375 0.660156 -1.050781 0.703125 -1.25 L 2 -8.28125 C 2.019531 -8.457031 2.03125 -8.609375 2.03125 -8.734375 C 2.03125 -9.003906 1.941406 -9.140625 1.765625 -9.140625 C 1.648438 -9.140625 1.457031 -9.078125 1.1875 -8.953125 L 1.171875 -8.953125 C 1.117188 -8.953125 1.085938 -8.976562 1.078125 -9.03125 C 1.066406 -9.082031 1.082031 -9.109375 1.125 -9.109375 L 3.296875 -10.1875 L 3.328125 -10.1875 C 3.367188 -10.1875 3.40625 -10.171875 3.4375 -10.140625 C 3.46875 -10.109375 3.476562 -10.085938 3.46875 -10.078125 L 1.890625 -1.25 C 1.867188 -1.113281 1.859375 -1 1.859375 -0.90625 C 1.859375 -0.695312 1.925781 -0.59375 2.0625 -0.59375 C 2.15625 -0.59375 2.257812 -0.632812 2.375 -0.71875 C 2.5 -0.800781 2.644531 -0.921875 2.8125 -1.078125 C 2.832031 -1.097656 2.847656 -1.109375 2.859375 -1.109375 C 2.890625 -1.109375 2.914062 -1.09375 2.9375 -1.0625 C 2.957031 -1.03125 2.953125 -1 2.921875 -0.96875 C 2.597656 -0.59375 2.316406 -0.316406 2.078125 -0.140625 C 1.835938 0.0351562 1.585938 0.125 1.328125 0.125 Z M 1.328125 0.125 "/></g></g></g><g fill="#004aad" fill-opacity="1"><g transform="translate(135.585464, 161.561593)"><g><path d="M 4.265625 -5.421875 C 4.335938 -5.421875 4.375 -5.378906 4.375 -5.296875 C 4.375 -5.222656 4.316406 -5.109375 4.203125 -4.953125 C 4.097656 -4.804688 4 -4.734375 3.90625 -4.734375 C 3.875 -4.734375 3.71875 -4.753906 3.4375 -4.796875 C 3.164062 -4.847656 2.859375 -4.882812 2.515625 -4.90625 L 1.921875 -1.5625 C 1.898438 -1.40625 1.890625 -1.300781 1.890625 -1.25 C 1.890625 -1.019531 1.945312 -0.851562 2.0625 -0.75 C 2.1875 -0.65625 2.367188 -0.609375 2.609375 -0.609375 C 2.960938 -0.609375 3.359375 -0.78125 3.796875 -1.125 L 3.8125 -1.125 C 3.84375 -1.125 3.875 -1.109375 3.90625 -1.078125 C 3.9375 -1.054688 3.9375 -1.03125 3.90625 -1 C 3.476562 -0.582031 3.097656 -0.28125 2.765625 -0.09375 C 2.429688 0.0820312 2.097656 0.171875 1.765625 0.171875 C 1.003906 0.171875 0.625 -0.171875 0.625 -0.859375 C 0.625 -0.992188 0.640625 -1.148438 0.671875 -1.328125 L 1.21875 -4.296875 C 1.25 -4.453125 1.265625 -4.582031 1.265625 -4.6875 C 1.265625 -4.832031 1.226562 -4.925781 1.15625 -4.96875 C 1.082031 -5.019531 0.945312 -5.046875 0.75 -5.046875 C 0.71875 -5.046875 0.703125 -5.078125 0.703125 -5.140625 C 0.703125 -5.222656 0.71875 -5.265625 0.75 -5.265625 C 1.5 -5.265625 2.09375 -5.675781 2.53125 -6.5 C 2.550781 -6.53125 2.582031 -6.546875 2.625 -6.546875 C 2.675781 -6.546875 2.71875 -6.535156 2.75 -6.515625 C 2.789062 -6.492188 2.804688 -6.476562 2.796875 -6.46875 L 2.578125 -5.3125 C 2.847656 -5.320312 3.078125 -5.332031 3.265625 -5.34375 C 3.453125 -5.351562 3.609375 -5.363281 3.734375 -5.375 C 3.984375 -5.40625 4.160156 -5.421875 4.265625 -5.421875 Z M 4.265625 -5.421875 "/></g></g></g><g fill="#004aad" fill-opacity="1"><g transform="translate(144.026027, 161.561593)"><g><path d="M 5.984375 -1.078125 C 6.003906 -1.097656 6.019531 -1.109375 6.03125 -1.109375 C 6.050781 -1.109375 6.070312 -1.09375 6.09375 -1.0625 C 6.125 -1.03125 6.125 -1 6.09375 -0.96875 C 5.78125 -0.59375 5.5 -0.316406 5.25 -0.140625 C 5 0.0351562 4.742188 0.125 4.484375 0.125 C 4.035156 0.125 3.8125 -0.132812 3.8125 -0.65625 C 3.8125 -0.800781 3.832031 -1 3.875 -1.25 L 4.28125 -3.484375 C 4.332031 -3.742188 4.359375 -3.953125 4.359375 -4.109375 C 4.359375 -4.566406 4.207031 -4.796875 3.90625 -4.796875 C 3.644531 -4.796875 3.375 -4.628906 3.09375 -4.296875 C 2.820312 -3.972656 2.5625 -3.488281 2.3125 -2.84375 C 2.0625 -2.195312 1.851562 -1.421875 1.6875 -0.515625 L 1.625 -0.171875 C 1.582031 0.015625 1.320312 0.109375 0.84375 0.109375 C 0.53125 0.109375 0.375 0.0703125 0.375 0 L 0.4375 -0.296875 C 0.53125 -0.734375 0.582031 -0.984375 0.59375 -1.046875 L 1.90625 -8.28125 C 1.9375 -8.457031 1.953125 -8.609375 1.953125 -8.734375 C 1.953125 -9.003906 1.863281 -9.140625 1.6875 -9.140625 C 1.570312 -9.140625 1.375 -9.078125 1.09375 -8.953125 L 1.078125 -8.953125 C 1.046875 -8.953125 1.019531 -8.976562 1 -9.03125 C 0.988281 -9.082031 1.003906 -9.109375 1.046875 -9.109375 L 3.21875 -10.1875 L 3.25 -10.1875 C 3.28125 -10.1875 3.3125 -10.171875 3.34375 -10.140625 C 3.382812 -10.109375 3.398438 -10.085938 3.390625 -10.078125 L 2.15625 -3.09375 C 2.46875 -3.882812 2.835938 -4.5 3.265625 -4.9375 C 3.691406 -5.382812 4.144531 -5.609375 4.625 -5.609375 C 5.269531 -5.609375 5.59375 -5.21875 5.59375 -4.4375 C 5.59375 -4.257812 5.566406 -4.03125 5.515625 -3.75 L 5.0625 -1.25 C 5.03125 -1.113281 5.015625 -1 5.015625 -0.90625 C 5.015625 -0.695312 5.085938 -0.59375 5.234375 -0.59375 C 5.328125 -0.59375 5.429688 -0.632812 5.546875 -0.71875 C 5.671875 -0.800781 5.816406 -0.921875 5.984375 -1.078125 Z M 5.984375 -1.078125 "/></g></g></g><g fill="#004aad" fill-opacity="1"><g transform="translate(154.629139, 161.561593)"><g/></g></g><g fill="#004aad" fill-opacity="1"><g transform="translate(162.128855, 161.561593)"><g><path d="M 7.25 -8.78125 C 7.320312 -8.78125 7.347656 -8.738281 7.328125 -8.65625 L 7.21875 -7.9375 L 7.03125 -6.765625 C 7.03125 -6.742188 7.007812 -6.734375 6.96875 -6.734375 C 6.945312 -6.734375 6.925781 -6.738281 6.90625 -6.75 C 6.882812 -6.757812 6.875 -6.769531 6.875 -6.78125 C 6.820312 -7.3125 6.628906 -7.726562 6.296875 -8.03125 C 5.972656 -8.332031 5.554688 -8.484375 5.046875 -8.484375 L 4.796875 -8.484375 C 4.523438 -8.484375 4.328125 -8.460938 4.203125 -8.421875 C 4.085938 -8.378906 4.003906 -8.300781 3.953125 -8.1875 C 3.898438 -8.070312 3.847656 -7.882812 3.796875 -7.625 L 3.265625 -4.59375 L 4.546875 -4.59375 C 4.972656 -4.59375 5.300781 -4.675781 5.53125 -4.84375 C 5.769531 -5.007812 5.929688 -5.285156 6.015625 -5.671875 C 6.015625 -5.703125 6.039062 -5.71875 6.09375 -5.71875 C 6.113281 -5.71875 6.132812 -5.707031 6.15625 -5.6875 C 6.175781 -5.675781 6.1875 -5.660156 6.1875 -5.640625 C 6.144531 -5.378906 6.085938 -5.09375 6.015625 -4.78125 C 6.015625 -4.738281 5.988281 -4.609375 5.9375 -4.390625 L 5.890625 -4.03125 C 5.847656 -3.757812 5.789062 -3.40625 5.71875 -2.96875 C 5.707031 -2.925781 5.671875 -2.90625 5.609375 -2.90625 C 5.554688 -2.914062 5.535156 -2.941406 5.546875 -2.984375 C 5.566406 -3.109375 5.578125 -3.203125 5.578125 -3.265625 C 5.578125 -3.566406 5.476562 -3.796875 5.28125 -3.953125 C 5.082031 -4.117188 4.804688 -4.203125 4.453125 -4.203125 L 3.1875 -4.203125 L 2.65625 -1.1875 C 2.625 -1.039062 2.609375 -0.914062 2.609375 -0.8125 C 2.609375 -0.5625 2.691406 -0.390625 2.859375 -0.296875 C 3.035156 -0.210938 3.359375 -0.171875 3.828125 -0.171875 C 3.847656 -0.171875 3.859375 -0.140625 3.859375 -0.078125 C 3.859375 -0.0234375 3.847656 0 3.828125 0 C 3.640625 0 3.472656 -0.00390625 3.328125 -0.015625 L 1.734375 -0.03125 L 0.84375 -0.015625 C 0.695312 -0.00390625 0.484375 0 0.203125 0 C 0.191406 0 0.1875 -0.0234375 0.1875 -0.078125 C 0.1875 -0.140625 0.191406 -0.171875 0.203125 -0.171875 C 0.472656 -0.171875 0.671875 -0.191406 0.796875 -0.234375 C 0.929688 -0.285156 1.03125 -0.378906 1.09375 -0.515625 C 1.15625 -0.648438 1.210938 -0.859375 1.265625 -1.140625 L 2.421875 -7.640625 C 2.453125 -7.878906 2.46875 -8.035156 2.46875 -8.109375 C 2.46875 -8.304688 2.410156 -8.4375 2.296875 -8.5 C 2.191406 -8.570312 2.003906 -8.609375 1.734375 -8.609375 C 1.703125 -8.609375 1.6875 -8.632812 1.6875 -8.6875 C 1.6875 -8.75 1.703125 -8.78125 1.734375 -8.78125 Z M 7.25 -8.78125 "/></g></g></g><g fill="#004aad" fill-opacity="1"><g transform="translate(173.153243, 161.561593)"><g><path d="M 2.4375 -7.015625 C 2.1875 -7.015625 1.988281 -7.082031 1.84375 -7.21875 C 1.695312 -7.363281 1.625 -7.566406 1.625 -7.828125 C 1.625 -8.046875 1.695312 -8.222656 1.84375 -8.359375 C 1.988281 -8.503906 2.1875 -8.578125 2.4375 -8.578125 C 2.675781 -8.578125 2.863281 -8.503906 3 -8.359375 C 3.132812 -8.222656 3.203125 -8.046875 3.203125 -7.828125 C 3.203125 -7.566406 3.132812 -7.363281 3 -7.21875 C 2.863281 -7.082031 2.675781 -7.015625 2.4375 -7.015625 Z M 1.484375 0.125 C 1.035156 0.125 0.8125 -0.132812 0.8125 -0.65625 C 0.8125 -0.800781 0.835938 -1 0.890625 -1.25 L 1.453125 -4.171875 C 1.484375 -4.304688 1.5 -4.414062 1.5 -4.5 C 1.5 -4.613281 1.472656 -4.703125 1.421875 -4.765625 C 1.378906 -4.828125 1.320312 -4.859375 1.25 -4.859375 C 1.050781 -4.859375 0.785156 -4.671875 0.453125 -4.296875 C 0.441406 -4.285156 0.425781 -4.28125 0.40625 -4.28125 C 0.363281 -4.28125 0.332031 -4.296875 0.3125 -4.328125 C 0.300781 -4.359375 0.304688 -4.390625 0.328125 -4.421875 C 0.660156 -4.816406 0.960938 -5.101562 1.234375 -5.28125 C 1.503906 -5.457031 1.769531 -5.546875 2.03125 -5.546875 C 2.488281 -5.546875 2.71875 -5.300781 2.71875 -4.8125 C 2.71875 -4.65625 2.695312 -4.5 2.65625 -4.34375 L 2.0625 -1.25 C 2.039062 -1.164062 2.03125 -1.054688 2.03125 -0.921875 C 2.03125 -0.703125 2.101562 -0.59375 2.25 -0.59375 C 2.34375 -0.59375 2.445312 -0.632812 2.5625 -0.71875 C 2.675781 -0.800781 2.816406 -0.921875 2.984375 -1.078125 C 3.003906 -1.097656 3.023438 -1.109375 3.046875 -1.109375 C 3.078125 -1.109375 3.097656 -1.09375 3.109375 -1.0625 C 3.128906 -1.03125 3.128906 -1 3.109375 -0.96875 C 2.785156 -0.59375 2.5 -0.316406 2.25 -0.140625 C 2 0.0351562 1.742188 0.125 1.484375 0.125 Z M 1.484375 0.125 "/></g></g></g><g fill="#004aad" fill-opacity="1"><g transform="translate(180.835513, 161.561593)"><g><path d="M 4.171875 -5.546875 C 4.410156 -5.546875 4.640625 -5.457031 4.859375 -5.28125 C 5.085938 -5.101562 5.179688 -4.898438 5.140625 -4.671875 C 5.117188 -4.535156 5.050781 -4.40625 4.9375 -4.28125 C 4.832031 -4.164062 4.691406 -4.109375 4.515625 -4.109375 C 4.347656 -4.109375 4.164062 -4.1875 3.96875 -4.34375 C 3.90625 -4.382812 3.84375 -4.421875 3.78125 -4.453125 C 3.71875 -4.492188 3.648438 -4.515625 3.578125 -4.515625 C 3.421875 -4.515625 3.222656 -4.265625 2.984375 -3.765625 C 2.753906 -3.273438 2.535156 -2.6875 2.328125 -2 C 2.117188 -1.3125 1.96875 -0.707031 1.875 -0.1875 L 1.875 -0.171875 C 1.851562 -0.0859375 1.773438 -0.0195312 1.640625 0.03125 C 1.515625 0.0820312 1.328125 0.109375 1.078125 0.109375 C 0.773438 0.109375 0.625 0.0703125 0.625 0 C 0.625 -0.0625 0.648438 -0.203125 0.703125 -0.421875 C 0.753906 -0.640625 0.800781 -0.847656 0.84375 -1.046875 L 1.421875 -4.171875 C 1.441406 -4.316406 1.453125 -4.414062 1.453125 -4.46875 C 1.453125 -4.726562 1.363281 -4.859375 1.1875 -4.859375 C 1 -4.859375 0.734375 -4.671875 0.390625 -4.296875 C 0.378906 -4.285156 0.363281 -4.28125 0.34375 -4.28125 C 0.3125 -4.28125 0.285156 -4.296875 0.265625 -4.328125 C 0.242188 -4.359375 0.25 -4.390625 0.28125 -4.421875 C 0.613281 -4.816406 0.914062 -5.101562 1.1875 -5.28125 C 1.457031 -5.457031 1.726562 -5.546875 2 -5.546875 C 2.226562 -5.546875 2.394531 -5.484375 2.5 -5.359375 C 2.601562 -5.234375 2.65625 -5.046875 2.65625 -4.796875 C 2.65625 -4.660156 2.640625 -4.507812 2.609375 -4.34375 L 2.328125 -2.796875 C 2.878906 -4.628906 3.492188 -5.546875 4.171875 -5.546875 Z M 4.171875 -5.546875 "/></g></g></g><g fill="#004aad" fill-opacity="1"><g transform="translate(190.048423, 161.561593)"><g><path d="M 1.515625 0.15625 C 1.109375 0.15625 0.765625 0.0664062 0.484375 -0.109375 C 0.203125 -0.285156 0.0625 -0.503906 0.0625 -0.765625 C 0.0625 -0.972656 0.125 -1.132812 0.25 -1.25 C 0.375 -1.375 0.523438 -1.4375 0.703125 -1.4375 C 0.859375 -1.4375 0.984375 -1.394531 1.078125 -1.3125 C 1.171875 -1.226562 1.28125 -1.09375 1.40625 -0.90625 C 1.53125 -0.707031 1.644531 -0.5625 1.75 -0.46875 C 1.851562 -0.375 2 -0.328125 2.1875 -0.328125 C 2.351562 -0.328125 2.472656 -0.367188 2.546875 -0.453125 C 2.628906 -0.546875 2.6875 -0.691406 2.71875 -0.890625 C 2.71875 -0.921875 2.71875 -0.972656 2.71875 -1.046875 C 2.71875 -1.316406 2.640625 -1.550781 2.484375 -1.75 C 2.328125 -1.945312 2.078125 -2.175781 1.734375 -2.4375 C 1.398438 -2.71875 1.148438 -2.957031 0.984375 -3.15625 C 0.828125 -3.363281 0.75 -3.609375 0.75 -3.890625 C 0.75 -3.941406 0.753906 -4.023438 0.765625 -4.140625 C 0.816406 -4.378906 0.9375 -4.601562 1.125 -4.8125 C 1.320312 -5.03125 1.570312 -5.207031 1.875 -5.34375 C 2.175781 -5.488281 2.503906 -5.5625 2.859375 -5.5625 C 3.316406 -5.5625 3.664062 -5.484375 3.90625 -5.328125 C 4.15625 -5.179688 4.265625 -4.976562 4.234375 -4.71875 C 4.210938 -4.539062 4.140625 -4.398438 4.015625 -4.296875 C 3.890625 -4.191406 3.753906 -4.140625 3.609375 -4.140625 C 3.410156 -4.140625 3.265625 -4.179688 3.171875 -4.265625 C 3.078125 -4.359375 2.992188 -4.488281 2.921875 -4.65625 C 2.835938 -4.832031 2.753906 -4.960938 2.671875 -5.046875 C 2.585938 -5.128906 2.453125 -5.171875 2.265625 -5.171875 C 2.109375 -5.171875 1.988281 -5.125 1.90625 -5.03125 C 1.820312 -4.945312 1.769531 -4.847656 1.75 -4.734375 C 1.738281 -4.691406 1.734375 -4.632812 1.734375 -4.5625 C 1.734375 -4.320312 1.8125 -4.109375 1.96875 -3.921875 C 2.132812 -3.734375 2.382812 -3.507812 2.71875 -3.25 C 3.070312 -2.957031 3.332031 -2.703125 3.5 -2.484375 C 3.664062 -2.273438 3.75 -2.03125 3.75 -1.75 C 3.75 -1.707031 3.738281 -1.628906 3.71875 -1.515625 C 3.675781 -1.265625 3.554688 -1.007812 3.359375 -0.75 C 3.160156 -0.488281 2.898438 -0.269531 2.578125 -0.09375 C 2.253906 0.0703125 1.898438 0.15625 1.515625 0.15625 Z M 1.515625 0.15625 "/></g></g></g><g fill="#004aad" fill-opacity="1"><g transform="translate(198.699628, 161.561593)"><g><path d="M 4.265625 -5.421875 C 4.335938 -5.421875 4.375 -5.378906 4.375 -5.296875 C 4.375 -5.222656 4.316406 -5.109375 4.203125 -4.953125 C 4.097656 -4.804688 4 -4.734375 3.90625 -4.734375 C 3.875 -4.734375 3.71875 -4.753906 3.4375 -4.796875 C 3.164062 -4.847656 2.859375 -4.882812 2.515625 -4.90625 L 1.921875 -1.5625 C 1.898438 -1.40625 1.890625 -1.300781 1.890625 -1.25 C 1.890625 -1.019531 1.945312 -0.851562 2.0625 -0.75 C 2.1875 -0.65625 2.367188 -0.609375 2.609375 -0.609375 C 2.960938 -0.609375 3.359375 -0.78125 3.796875 -1.125 L 3.8125 -1.125 C 3.84375 -1.125 3.875 -1.109375 3.90625 -1.078125 C 3.9375 -1.054688 3.9375 -1.03125 3.90625 -1 C 3.476562 -0.582031 3.097656 -0.28125 2.765625 -0.09375 C 2.429688 0.0820312 2.097656 0.171875 1.765625 0.171875 C 1.003906 0.171875 0.625 -0.171875 0.625 -0.859375 C 0.625 -0.992188 0.640625 -1.148438 0.671875 -1.328125 L 1.21875 -4.296875 C 1.25 -4.453125 1.265625 -4.582031 1.265625 -4.6875 C 1.265625 -4.832031 1.226562 -4.925781 1.15625 -4.96875 C 1.082031 -5.019531 0.945312 -5.046875 0.75 -5.046875 C 0.71875 -5.046875 0.703125 -5.078125 0.703125 -5.140625 C 0.703125 -5.222656 0.71875 -5.265625 0.75 -5.265625 C 1.5 -5.265625 2.09375 -5.675781 2.53125 -6.5 C 2.550781 -6.53125 2.582031 -6.546875 2.625 -6.546875 C 2.675781 -6.546875 2.71875 -6.535156 2.75 -6.515625 C 2.789062 -6.492188 2.804688 -6.476562 2.796875 -6.46875 L 2.578125 -5.3125 C 2.847656 -5.320312 3.078125 -5.332031 3.265625 -5.34375 C 3.453125 -5.351562 3.609375 -5.363281 3.734375 -5.375 C 3.984375 -5.40625 4.160156 -5.421875 4.265625 -5.421875 Z M 4.265625 -5.421875 "/></g></g></g><g fill="#004aad" fill-opacity="1"><g transform="translate(207.140191, 161.561593)"><g><path d="M 1.15625 -1.453125 C 1.445312 -1.453125 1.664062 -1.363281 1.8125 -1.1875 C 1.96875 -1.007812 2.046875 -0.765625 2.046875 -0.453125 C 2.046875 -0.265625 2.03125 -0.09375 2 0.0625 C 1.914062 0.4375 1.722656 0.820312 1.421875 1.21875 C 1.128906 1.625 0.78125 1.96875 0.375 2.25 C 0.363281 2.257812 0.351562 2.265625 0.34375 2.265625 C 0.3125 2.265625 0.285156 2.242188 0.265625 2.203125 C 0.242188 2.171875 0.25 2.144531 0.28125 2.125 C 0.90625 1.570312 1.269531 0.976562 1.375 0.34375 C 1.394531 0.25 1.40625 0.191406 1.40625 0.171875 C 1.40625 0.117188 1.394531 0.0664062 1.375 0.015625 C 1.3125 0.078125 1.203125 0.109375 1.046875 0.109375 C 0.804688 0.109375 0.617188 0.0351562 0.484375 -0.109375 C 0.359375 -0.265625 0.296875 -0.441406 0.296875 -0.640625 C 0.296875 -0.867188 0.367188 -1.0625 0.515625 -1.21875 C 0.660156 -1.375 0.875 -1.453125 1.15625 -1.453125 Z M 1.15625 -1.453125 "/></g></g></g><g fill="#004aad" fill-opacity="1"><g transform="translate(214.639906, 161.561593)"><g/></g></g><g fill="#004aad" fill-opacity="1"><g transform="translate(222.139622, 161.561593)"><g><path d="M 8.046875 -0.171875 C 8.085938 -0.171875 8.109375 -0.140625 8.109375 -0.078125 C 8.109375 -0.0234375 8.085938 0 8.046875 0 C 7.898438 0 7.664062 -0.0078125 7.34375 -0.03125 C 6.988281 -0.0507812 6.703125 -0.0625 6.484375 -0.0625 C 6.285156 -0.0625 6.015625 -0.0507812 5.671875 -0.03125 C 5.367188 -0.0078125 5.144531 0 5 0 C 4.957031 0 4.9375 -0.0234375 4.9375 -0.078125 C 4.9375 -0.140625 4.957031 -0.171875 5 -0.171875 C 5.28125 -0.171875 5.476562 -0.210938 5.59375 -0.296875 C 5.71875 -0.378906 5.78125 -0.523438 5.78125 -0.734375 C 5.78125 -0.878906 5.765625 -1.03125 5.734375 -1.1875 L 5.328125 -3.21875 L 2.59375 -3.21875 L 1.828125 -1.8125 C 1.578125 -1.375 1.453125 -1.03125 1.453125 -0.78125 C 1.453125 -0.570312 1.539062 -0.414062 1.71875 -0.3125 C 1.90625 -0.21875 2.179688 -0.171875 2.546875 -0.171875 C 2.578125 -0.171875 2.585938 -0.140625 2.578125 -0.078125 C 2.578125 -0.0234375 2.5625 0 2.53125 0 C 2.40625 0 2.164062 -0.0078125 1.8125 -0.03125 C 1.382812 -0.0507812 1.050781 -0.0625 0.8125 -0.0625 C 0.613281 -0.0625 0.382812 -0.0507812 0.125 -0.03125 C -0.132812 -0.0078125 -0.335938 0 -0.484375 0 C -0.515625 0 -0.53125 -0.0234375 -0.53125 -0.078125 C -0.53125 -0.140625 -0.515625 -0.171875 -0.484375 -0.171875 C -0.210938 -0.171875 0.0976562 -0.316406 0.453125 -0.609375 C 0.804688 -0.910156 1.140625 -1.34375 1.453125 -1.90625 L 5.359375 -8.90625 C 5.378906 -8.9375 5.421875 -8.953125 5.484375 -8.953125 C 5.503906 -8.953125 5.53125 -8.945312 5.5625 -8.9375 C 5.59375 -8.925781 5.613281 -8.910156 5.625 -8.890625 L 7.15625 -1.1875 C 7.207031 -0.875 7.253906 -0.65625 7.296875 -0.53125 C 7.335938 -0.40625 7.414062 -0.3125 7.53125 -0.25 C 7.644531 -0.195312 7.816406 -0.171875 8.046875 -0.171875 Z M 2.8125 -3.609375 L 5.234375 -3.609375 L 4.59375 -6.84375 Z M 2.8125 -3.609375 "/></g></g></g><g fill="#004aad" fill-opacity="1"><g transform="translate(234.849115, 161.561593)"><g><path d="M 1.328125 0.125 C 0.867188 0.125 0.640625 -0.140625 0.640625 -0.671875 C 0.640625 -0.859375 0.660156 -1.050781 0.703125 -1.25 L 2 -8.28125 C 2.019531 -8.457031 2.03125 -8.609375 2.03125 -8.734375 C 2.03125 -9.003906 1.941406 -9.140625 1.765625 -9.140625 C 1.648438 -9.140625 1.457031 -9.078125 1.1875 -8.953125 L 1.171875 -8.953125 C 1.117188 -8.953125 1.085938 -8.976562 1.078125 -9.03125 C 1.066406 -9.082031 1.082031 -9.109375 1.125 -9.109375 L 3.296875 -10.1875 L 3.328125 -10.1875 C 3.367188 -10.1875 3.40625 -10.171875 3.4375 -10.140625 C 3.46875 -10.109375 3.476562 -10.085938 3.46875 -10.078125 L 1.890625 -1.25 C 1.867188 -1.113281 1.859375 -1 1.859375 -0.90625 C 1.859375 -0.695312 1.925781 -0.59375 2.0625 -0.59375 C 2.15625 -0.59375 2.257812 -0.632812 2.375 -0.71875 C 2.5 -0.800781 2.644531 -0.921875 2.8125 -1.078125 C 2.832031 -1.097656 2.847656 -1.109375 2.859375 -1.109375 C 2.890625 -1.109375 2.914062 -1.09375 2.9375 -1.0625 C 2.957031 -1.03125 2.953125 -1 2.921875 -0.96875 C 2.597656 -0.59375 2.316406 -0.316406 2.078125 -0.140625 C 1.835938 0.0351562 1.585938 0.125 1.328125 0.125 Z M 1.328125 0.125 "/></g></g></g><g fill="#004aad" fill-opacity="1"><g transform="translate(242.531385, 161.561593)"><g><path d="M 7.578125 -5.5625 C 7.835938 -5.5625 8.03125 -5.476562 8.15625 -5.3125 C 8.28125 -5.144531 8.34375 -4.84375 8.34375 -4.40625 C 8.34375 -4.15625 8.332031 -3.953125 8.3125 -3.796875 C 8.25 -3.097656 8.066406 -2.441406 7.765625 -1.828125 C 7.472656 -1.210938 7.113281 -0.722656 6.6875 -0.359375 C 6.257812 0.00390625 5.835938 0.1875 5.421875 0.1875 C 4.898438 0.1875 4.503906 -0.0976562 4.234375 -0.671875 C 3.710938 -0.0976562 3.1875 0.1875 2.65625 0.1875 C 2.226562 0.1875 1.898438 0.0507812 1.671875 -0.21875 C 1.441406 -0.488281 1.328125 -0.859375 1.328125 -1.328125 C 1.328125 -1.484375 1.34375 -1.648438 1.375 -1.828125 C 1.476562 -2.460938 1.765625 -3.175781 2.234375 -3.96875 C 2.316406 -4.09375 2.359375 -4.1875 2.359375 -4.25 C 2.359375 -4.320312 2.300781 -4.359375 2.1875 -4.359375 L 1.515625 -4.359375 C 1.191406 -4.359375 0.953125 -4.3125 0.796875 -4.21875 C 0.648438 -4.125 0.539062 -3.96875 0.46875 -3.75 C 0.445312 -3.707031 0.414062 -3.6875 0.375 -3.6875 C 0.351562 -3.6875 0.332031 -3.695312 0.3125 -3.71875 C 0.289062 -3.738281 0.285156 -3.765625 0.296875 -3.796875 C 0.441406 -4.234375 0.570312 -4.5625 0.6875 -4.78125 C 0.8125 -5.007812 0.953125 -5.175781 1.109375 -5.28125 C 1.273438 -5.382812 1.492188 -5.4375 1.765625 -5.4375 L 3.078125 -5.4375 C 3.179688 -5.4375 3.234375 -5.414062 3.234375 -5.375 C 3.234375 -5.351562 3.21875 -5.316406 3.1875 -5.265625 C 2.988281 -4.804688 2.804688 -4.332031 2.640625 -3.84375 C 2.484375 -3.363281 2.378906 -2.96875 2.328125 -2.65625 C 2.304688 -2.550781 2.296875 -2.410156 2.296875 -2.234375 C 2.296875 -1.816406 2.390625 -1.488281 2.578125 -1.25 C 2.773438 -1.019531 3.035156 -0.90625 3.359375 -0.90625 C 3.585938 -0.90625 3.828125 -1 4.078125 -1.1875 C 4.003906 -1.476562 3.96875 -1.832031 3.96875 -2.25 C 3.96875 -2.71875 4.007812 -3.160156 4.09375 -3.578125 C 4.207031 -4.242188 4.363281 -4.726562 4.5625 -5.03125 C 4.757812 -5.34375 5.003906 -5.5 5.296875 -5.5 C 5.679688 -5.5 5.875 -5.226562 5.875 -4.6875 C 5.875 -4.53125 5.859375 -4.34375 5.828125 -4.125 C 5.765625 -3.675781 5.648438 -3.226562 5.484375 -2.78125 C 5.328125 -2.332031 5.132812 -1.914062 4.90625 -1.53125 C 5.207031 -1.113281 5.609375 -0.90625 6.109375 -0.90625 C 6.472656 -0.90625 6.800781 -1.078125 7.09375 -1.421875 C 7.394531 -1.773438 7.578125 -2.234375 7.640625 -2.796875 C 7.648438 -2.859375 7.65625 -2.953125 7.65625 -3.078125 C 7.65625 -3.296875 7.617188 -3.484375 7.546875 -3.640625 C 7.472656 -3.796875 7.347656 -3.96875 7.171875 -4.15625 C 7.054688 -4.289062 6.96875 -4.410156 6.90625 -4.515625 C 6.84375 -4.617188 6.8125 -4.738281 6.8125 -4.875 C 6.8125 -5.101562 6.882812 -5.273438 7.03125 -5.390625 C 7.175781 -5.503906 7.359375 -5.5625 7.578125 -5.5625 Z M 4.421875 -3.6875 C 4.390625 -3.53125 4.375 -3.363281 4.375 -3.1875 C 4.375 -2.738281 4.472656 -2.304688 4.671875 -1.890625 C 4.867188 -2.191406 5.03125 -2.507812 5.15625 -2.84375 C 5.289062 -3.1875 5.359375 -3.488281 5.359375 -3.75 C 5.359375 -4.082031 5.21875 -4.25 4.9375 -4.25 C 4.820312 -4.25 4.71875 -4.207031 4.625 -4.125 C 4.539062 -4.039062 4.472656 -3.894531 4.421875 -3.6875 Z M 4.421875 -3.6875 "/></g></g></g><g fill="#004aad" fill-opacity="1"><g transform="translate(255.56386, 161.561593)"><g><path d="M 5.828125 -1.078125 C 5.835938 -1.085938 5.851562 -1.09375 5.875 -1.09375 C 5.894531 -1.09375 5.914062 -1.078125 5.9375 -1.046875 C 5.957031 -1.015625 5.957031 -0.988281 5.9375 -0.96875 C 5.34375 -0.238281 4.820312 0.125 4.375 0.125 C 4.125 0.125 3.941406 0.0546875 3.828125 -0.078125 C 3.722656 -0.210938 3.671875 -0.425781 3.671875 -0.71875 C 3.671875 -0.875 3.679688 -1.050781 3.703125 -1.25 L 3.875 -2.203125 C 3.519531 -1.453125 3.097656 -0.863281 2.609375 -0.4375 C 2.117188 -0.0195312 1.640625 0.1875 1.171875 0.1875 C 0.878906 0.1875 0.644531 0.0976562 0.46875 -0.078125 C 0.300781 -0.253906 0.21875 -0.523438 0.21875 -0.890625 C 0.21875 -1.515625 0.425781 -2.195312 0.84375 -2.9375 C 1.257812 -3.6875 1.773438 -4.316406 2.390625 -4.828125 C 3.003906 -5.347656 3.582031 -5.609375 4.125 -5.609375 C 4.289062 -5.609375 4.46875 -5.578125 4.65625 -5.515625 C 4.84375 -5.453125 5 -5.359375 5.125 -5.234375 C 5.300781 -5.367188 5.445312 -5.53125 5.5625 -5.71875 C 5.582031 -5.738281 5.601562 -5.75 5.625 -5.75 C 5.644531 -5.75 5.671875 -5.738281 5.703125 -5.71875 C 5.734375 -5.695312 5.742188 -5.679688 5.734375 -5.671875 L 4.921875 -1.25 C 4.890625 -1.125 4.875 -1.015625 4.875 -0.921875 C 4.875 -0.703125 4.941406 -0.59375 5.078125 -0.59375 C 5.253906 -0.59375 5.503906 -0.753906 5.828125 -1.078125 Z M 2.0625 -0.84375 C 2.34375 -0.84375 2.628906 -0.988281 2.921875 -1.28125 C 3.222656 -1.582031 3.484375 -1.941406 3.703125 -2.359375 C 3.921875 -2.785156 4.0625 -3.179688 4.125 -3.546875 C 4.15625 -3.710938 4.171875 -3.851562 4.171875 -3.96875 C 4.171875 -4.269531 4.101562 -4.503906 3.96875 -4.671875 C 3.832031 -4.835938 3.644531 -4.921875 3.40625 -4.921875 C 2.96875 -4.921875 2.582031 -4.6875 2.25 -4.21875 C 1.914062 -3.757812 1.6875 -3.160156 1.5625 -2.421875 C 1.507812 -2.117188 1.484375 -1.890625 1.484375 -1.734375 C 1.484375 -1.429688 1.535156 -1.207031 1.640625 -1.0625 C 1.742188 -0.914062 1.882812 -0.84375 2.0625 -0.84375 Z M 2.0625 -0.84375 "/></g></g></g><g fill="#004aad" fill-opacity="1"><g transform="translate(266.012499, 161.561593)"><g><path d="M 5.171875 -5.5625 C 5.398438 -5.5625 5.578125 -5.476562 5.703125 -5.3125 C 5.835938 -5.144531 5.90625 -4.898438 5.90625 -4.578125 C 5.90625 -3.890625 5.523438 -2.847656 4.765625 -1.453125 C 4.015625 -0.0546875 3.148438 1.191406 2.171875 2.296875 C 1.203125 3.398438 0.410156 3.953125 -0.203125 3.953125 C -0.765625 3.953125 -1.046875 3.726562 -1.046875 3.28125 C -1.046875 3.019531 -0.972656 2.816406 -0.828125 2.671875 C -0.679688 2.523438 -0.472656 2.453125 -0.203125 2.453125 C -0.0664062 2.453125 0.117188 2.507812 0.359375 2.625 C 0.390625 2.632812 0.460938 2.660156 0.578125 2.703125 C 0.691406 2.753906 0.800781 2.78125 0.90625 2.78125 C 1.070312 2.78125 1.234375 2.722656 1.390625 2.609375 C 1.628906 2.453125 1.929688 2.132812 2.296875 1.65625 L 2.296875 1 C 2.296875 -0.820312 2.164062 -2.238281 1.90625 -3.25 C 1.65625 -4.257812 1.316406 -4.765625 0.890625 -4.765625 C 0.773438 -4.765625 0.65625 -4.722656 0.53125 -4.640625 C 0.414062 -4.554688 0.320312 -4.453125 0.25 -4.328125 C 0.238281 -4.296875 0.210938 -4.28125 0.171875 -4.28125 C 0.0976562 -4.28125 0.0664062 -4.3125 0.078125 -4.375 C 0.242188 -4.707031 0.488281 -4.984375 0.8125 -5.203125 C 1.144531 -5.429688 1.445312 -5.546875 1.71875 -5.546875 C 2.070312 -5.546875 2.378906 -5.335938 2.640625 -4.921875 C 2.910156 -4.503906 3.113281 -3.929688 3.25 -3.203125 C 3.382812 -2.484375 3.453125 -1.671875 3.453125 -0.765625 C 3.453125 -0.410156 3.445312 -0.140625 3.4375 0.046875 C 3.800781 -0.535156 4.117188 -1.078125 4.390625 -1.578125 C 4.660156 -2.078125 4.820312 -2.445312 4.875 -2.6875 C 4.925781 -2.90625 4.953125 -3.097656 4.953125 -3.265625 C 4.953125 -3.453125 4.925781 -3.609375 4.875 -3.734375 C 4.820312 -3.859375 4.742188 -4 4.640625 -4.15625 C 4.546875 -4.300781 4.472656 -4.414062 4.421875 -4.5 C 4.378906 -4.59375 4.359375 -4.707031 4.359375 -4.84375 C 4.359375 -5.0625 4.429688 -5.234375 4.578125 -5.359375 C 4.722656 -5.492188 4.921875 -5.5625 5.171875 -5.5625 Z M 5.171875 -5.5625 "/></g></g></g><g fill="#004aad" fill-opacity="1"><g transform="translate(276.587531, 161.561593)"><g><path d="M 1.515625 0.15625 C 1.109375 0.15625 0.765625 0.0664062 0.484375 -0.109375 C 0.203125 -0.285156 0.0625 -0.503906 0.0625 -0.765625 C 0.0625 -0.972656 0.125 -1.132812 0.25 -1.25 C 0.375 -1.375 0.523438 -1.4375 0.703125 -1.4375 C 0.859375 -1.4375 0.984375 -1.394531 1.078125 -1.3125 C 1.171875 -1.226562 1.28125 -1.09375 1.40625 -0.90625 C 1.53125 -0.707031 1.644531 -0.5625 1.75 -0.46875 C 1.851562 -0.375 2 -0.328125 2.1875 -0.328125 C 2.351562 -0.328125 2.472656 -0.367188 2.546875 -0.453125 C 2.628906 -0.546875 2.6875 -0.691406 2.71875 -0.890625 C 2.71875 -0.921875 2.71875 -0.972656 2.71875 -1.046875 C 2.71875 -1.316406 2.640625 -1.550781 2.484375 -1.75 C 2.328125 -1.945312 2.078125 -2.175781 1.734375 -2.4375 C 1.398438 -2.71875 1.148438 -2.957031 0.984375 -3.15625 C 0.828125 -3.363281 0.75 -3.609375 0.75 -3.890625 C 0.75 -3.941406 0.753906 -4.023438 0.765625 -4.140625 C 0.816406 -4.378906 0.9375 -4.601562 1.125 -4.8125 C 1.320312 -5.03125 1.570312 -5.207031 1.875 -5.34375 C 2.175781 -5.488281 2.503906 -5.5625 2.859375 -5.5625 C 3.316406 -5.5625 3.664062 -5.484375 3.90625 -5.328125 C 4.15625 -5.179688 4.265625 -4.976562 4.234375 -4.71875 C 4.210938 -4.539062 4.140625 -4.398438 4.015625 -4.296875 C 3.890625 -4.191406 3.753906 -4.140625 3.609375 -4.140625 C 3.410156 -4.140625 3.265625 -4.179688 3.171875 -4.265625 C 3.078125 -4.359375 2.992188 -4.488281 2.921875 -4.65625 C 2.835938 -4.832031 2.753906 -4.960938 2.671875 -5.046875 C 2.585938 -5.128906 2.453125 -5.171875 2.265625 -5.171875 C 2.109375 -5.171875 1.988281 -5.125 1.90625 -5.03125 C 1.820312 -4.945312 1.769531 -4.847656 1.75 -4.734375 C 1.738281 -4.691406 1.734375 -4.632812 1.734375 -4.5625 C 1.734375 -4.320312 1.8125 -4.109375 1.96875 -3.921875 C 2.132812 -3.734375 2.382812 -3.507812 2.71875 -3.25 C 3.070312 -2.957031 3.332031 -2.703125 3.5 -2.484375 C 3.664062 -2.273438 3.75 -2.03125 3.75 -1.75 C 3.75 -1.707031 3.738281 -1.628906 3.71875 -1.515625 C 3.675781 -1.265625 3.554688 -1.007812 3.359375 -0.75 C 3.160156 -0.488281 2.898438 -0.269531 2.578125 -0.09375 C 2.253906 0.0703125 1.898438 0.15625 1.515625 0.15625 Z M 1.515625 0.15625 "/></g></g></g></svg>