<svg xmlns="http://www.w3.org/2000/svg" xmlns:xlink="http://www.w3.org/1999/xlink" width="500" zoomAndPan="magnify" viewBox="0 0 375 374.999991" height="500" preserveAspectRatio="xMidYMid meet" version="1.0"><defs><g/><clipPath id="cfa6dbf83e"><path d="M 25.859375 127.152344 L 153.320312 127.152344 L 153.320312 247.847656 L 25.859375 247.847656 Z M 25.859375 127.152344 " clip-rule="nonzero"/></clipPath><clipPath id="3440d064ef"><path d="M 54 168 L 328.609375 168 L 328.609375 228 L 54 228 Z M 54 168 " clip-rule="nonzero"/></clipPath></defs><g clip-path="url(#cfa6dbf83e)"><path fill="#004aad" d="M 25.878906 163.167969 C 25.992188 158.761719 26.660156 154.289062 28.085938 149.90625 C 28.804688 147.71875 29.71875 145.5625 30.84375 143.480469 C 31.980469 141.402344 33.332031 139.40625 34.902344 137.558594 C 36.472656 135.722656 38.261719 134.03125 40.214844 132.574219 C 41.191406 131.847656 42.210938 131.175781 43.253906 130.558594 C 43.519531 130.40625 43.769531 130.257812 44.070312 130.09375 C 44.355469 129.941406 44.675781 129.765625 44.867188 129.667969 L 45.199219 129.496094 L 45.28125 129.453125 L 45.460938 129.367188 L 45.703125 129.253906 C 46.023438 129.109375 46.339844 128.953125 46.667969 128.824219 C 49.277344 127.746094 52.039062 127.25 54.660156 127.164062 C 57.289062 127.085938 59.789062 127.40625 62.128906 127.9375 C 66.816406 129.007812 70.9375 130.84375 74.765625 132.925781 C 78.59375 135.015625 82.117188 137.414062 85.472656 139.960938 C 86.972656 141.105469 88.429688 142.292969 89.863281 143.507812 C 90.09375 143.234375 90.332031 142.964844 90.574219 142.695312 C 92.492188 140.5625 94.625 138.679688 96.894531 137.042969 C 101.4375 133.773438 106.511719 131.449219 111.824219 130.066406 C 114.484375 129.382812 117.207031 128.9375 119.960938 128.757812 C 122.714844 128.597656 125.503906 128.683594 128.269531 129.121094 C 129.648438 129.335938 131.023438 129.628906 132.378906 130.015625 L 132.886719 130.164062 L 133.429688 130.332031 C 133.824219 130.453125 134.058594 130.542969 134.355469 130.644531 L 134.464844 130.683594 C 134.589844 130.722656 134.515625 130.703125 134.550781 130.714844 L 134.585938 130.722656 L 134.898438 130.84375 L 135.398438 131.035156 C 135.730469 131.160156 136.058594 131.304688 136.386719 131.449219 C 137.703125 132.023438 138.988281 132.683594 140.207031 133.46875 C 141.429688 134.25 142.578125 135.136719 143.652344 136.109375 C 145.800781 138.046875 147.574219 140.339844 148.941406 142.769531 C 150.316406 145.207031 151.285156 147.785156 151.953125 150.371094 C 152.289062 151.667969 152.550781 152.964844 152.753906 154.265625 C 152.957031 155.5625 153.074219 156.863281 153.152344 158.15625 C 153.304688 160.742188 153.253906 163.304688 153.027344 165.832031 C 152.785156 168.359375 152.40625 170.855469 151.867188 173.300781 C 151.324219 175.75 150.652344 178.15625 149.835938 180.507812 C 149.019531 182.855469 148.070312 185.148438 146.964844 187.359375 C 145.867188 189.570312 144.601562 191.695312 143.144531 193.65625 C 144.144531 191.429688 144.9375 189.140625 145.601562 186.828125 C 146.257812 184.511719 146.792969 182.175781 147.183594 179.820312 C 147.582031 177.46875 147.875 175.109375 148.015625 172.75 C 148.179688 170.394531 148.207031 168.039062 148.09375 165.714844 C 147.972656 163.390625 147.746094 161.085938 147.3125 158.851562 C 146.886719 156.617188 146.300781 154.445312 145.515625 152.402344 C 144.738281 150.355469 143.722656 148.457031 142.53125 146.769531 C 141.339844 145.082031 139.933594 143.621094 138.34375 142.457031 C 136.75 141.296875 135.003906 140.386719 133.109375 139.757812 C 132.875 139.675781 132.640625 139.59375 132.398438 139.53125 L 132.035156 139.425781 L 131.855469 139.375 L 131.8125 139.359375 L 131.789062 139.355469 C 131.808594 139.359375 131.71875 139.332031 131.824219 139.367188 L 131.714844 139.335938 C 131.429688 139.265625 131.089844 139.167969 130.894531 139.136719 L 130.558594 139.0625 L 130.183594 138.988281 C 129.183594 138.792969 128.160156 138.664062 127.132812 138.59375 C 125.074219 138.445312 122.980469 138.519531 120.902344 138.800781 C 118.820312 139.085938 116.753906 139.554688 114.75 140.21875 C 112.742188 140.875 110.789062 141.703125 108.941406 142.695312 C 107.085938 143.683594 105.332031 144.832031 103.722656 146.113281 C 102.117188 147.398438 100.644531 148.8125 99.386719 150.347656 C 98.125 151.882812 97.058594 153.515625 96.242188 155.226562 L 92.832031 162.382812 L 86.726562 156.800781 L 86.273438 156.382812 L 85.765625 155.929688 L 84.722656 155.015625 C 84.015625 154.40625 83.300781 153.804688 82.574219 153.214844 C 81.125 152.027344 79.636719 150.886719 78.132812 149.785156 C 75.121094 147.585938 72.007812 145.582031 68.84375 143.894531 C 67.265625 143.050781 65.667969 142.304688 64.078125 141.667969 C 63.289062 141.351562 62.496094 141.0625 61.710938 140.808594 C 60.925781 140.5625 60.144531 140.351562 59.378906 140.179688 C 58.613281 140.003906 57.863281 139.886719 57.136719 139.804688 C 56.40625 139.726562 55.699219 139.683594 55.03125 139.707031 C 53.6875 139.75 52.484375 139.976562 51.414062 140.414062 C 51.277344 140.464844 51.152344 140.535156 51.019531 140.589844 L 50.917969 140.632812 L 50.894531 140.640625 C 50.871094 140.652344 51.011719 140.582031 50.933594 140.621094 L 50.847656 140.664062 L 50.511719 140.828125 C 50.257812 140.953125 50.148438 141.015625 49.992188 141.09375 C 49.855469 141.164062 49.675781 141.269531 49.511719 141.359375 C 48.835938 141.738281 48.1875 142.152344 47.5625 142.597656 C 46.3125 143.484375 45.15625 144.5 44.113281 145.648438 C 43.066406 146.789062 42.117188 148.054688 41.289062 149.429688 C 40.449219 150.796875 39.726562 152.277344 39.113281 153.828125 C 37.871094 156.9375 37.09375 160.347656 36.6875 163.867188 C 36.492188 165.625 36.382812 167.410156 36.378906 169.210938 C 36.375 170.109375 36.394531 171.011719 36.433594 171.914062 L 36.46875 172.59375 L 36.488281 172.933594 C 36.488281 172.960938 36.472656 172.832031 36.484375 172.910156 L 36.488281 172.957031 L 36.5 173.046875 L 36.519531 173.234375 L 36.601562 173.972656 L 36.644531 174.339844 L 36.6875 174.660156 C 36.796875 175.488281 36.9375 176.402344 37.097656 177.289062 C 37.261719 178.183594 37.449219 179.074219 37.660156 179.964844 C 38.085938 181.742188 38.601562 183.511719 39.199219 185.261719 C 39.800781 187.011719 40.488281 188.746094 41.242188 190.460938 C 41.988281 192.175781 42.808594 193.875 43.691406 195.550781 C 45.453125 198.90625 47.480469 202.152344 49.648438 205.332031 C 51.816406 208.515625 54.1875 211.585938 56.660156 214.597656 C 59.128906 217.613281 61.746094 220.523438 64.425781 223.390625 C 67.109375 226.257812 69.902344 229.042969 72.738281 231.792969 C 75.585938 234.527344 78.488281 237.226562 81.441406 239.875 C 84.386719 242.535156 87.386719 245.136719 90.386719 247.757812 L 90.910156 247.800781 L 90.367188 247.847656 L 90.355469 247.847656 L 90.339844 247.839844 C 86.929688 245.777344 83.578125 243.613281 80.261719 241.390625 C 76.957031 239.152344 73.683594 236.847656 70.488281 234.429688 C 67.28125 232.027344 64.148438 229.511719 61.085938 226.898438 C 58.019531 224.285156 55.054688 221.535156 52.175781 218.679688 C 49.296875 215.816406 46.554688 212.800781 43.941406 209.640625 C 41.324219 206.480469 38.898438 203.136719 36.675781 199.617188 C 35.566406 197.855469 34.511719 196.050781 33.527344 194.191406 C 32.554688 192.332031 31.648438 190.421875 30.828125 188.464844 C 30.011719 186.507812 29.277344 184.5 28.640625 182.449219 C 28.324219 181.425781 28.035156 180.386719 27.769531 179.339844 C 27.503906 178.292969 27.273438 177.253906 27.066406 176.121094 L 26.984375 175.707031 L 26.921875 175.335938 L 26.796875 174.601562 L 26.523438 172.964844 C 26.355469 171.890625 26.21875 170.8125 26.113281 169.730469 C 25.902344 167.5625 25.816406 165.371094 25.878906 163.167969 " fill-opacity="1" fill-rule="nonzero"/></g><g clip-path="url(#3440d064ef)"><path fill="#004aad" d="M 172.960938 227.195312 C 172.992188 227.195312 173.027344 227.195312 173.058594 227.191406 C 174 227.148438 174.765625 226.46875 174.925781 225.542969 L 180.152344 195.300781 L 183.78125 206.902344 C 184.960938 210.667969 188.40625 213.199219 192.351562 213.199219 L 327.074219 213.199219 C 327.921875 213.199219 328.609375 212.515625 328.609375 211.667969 C 328.609375 210.820312 327.921875 210.132812 327.074219 210.132812 L 192.351562 210.132812 C 189.753906 210.132812 187.488281 208.464844 186.710938 205.984375 L 181.789062 190.25 C 181.507812 189.355469 180.660156 188.773438 179.722656 188.832031 C 178.789062 188.894531 178.023438 189.585938 177.863281 190.507812 L 172.722656 220.257812 L 159.066406 170.578125 C 158.75 169.425781 157.734375 168.675781 156.542969 168.707031 C 155.347656 168.738281 154.375 169.542969 154.121094 170.710938 L 145.953125 209.378906 L 140.691406 197.441406 L 140.5625 197.28125 C 139.382812 195.824219 137.632812 194.9375 135.761719 194.84375 C 133.886719 194.753906 132.0625 195.46875 130.746094 196.804688 L 126.773438 200.847656 C 126.753906 200.867188 126.714844 200.90625 126.632812 200.890625 C 126.550781 200.871094 126.53125 200.816406 126.523438 200.792969 L 119.84375 181.832031 C 119.527344 180.929688 118.667969 180.332031 117.714844 180.363281 C 116.757812 180.390625 115.929688 181.019531 115.660156 181.9375 L 103.628906 222.484375 L 99.644531 211.925781 C 98.230469 208.183594 94.589844 205.664062 90.589844 205.664062 L 56.367188 205.664062 C 55.519531 205.664062 54.832031 206.351562 54.832031 207.199219 C 54.832031 208.046875 55.519531 208.734375 56.367188 208.734375 L 90.589844 208.734375 C 93.320312 208.734375 95.808594 210.453125 96.773438 213.011719 L 101.261719 224.90625 C 101.660156 225.964844 102.644531 226.617188 103.777344 226.582031 C 104.90625 226.539062 105.84375 225.8125 106.164062 224.730469 L 117.839844 185.382812 L 123.625 201.8125 C 124 202.867188 124.871094 203.644531 125.964844 203.886719 C 127.058594 204.128906 128.175781 203.796875 128.960938 203 L 132.9375 198.957031 C 133.648438 198.234375 134.597656 197.863281 135.613281 197.910156 C 136.566406 197.957031 137.425781 198.367188 138.054688 199.070312 L 144.210938 213.03125 C 144.601562 213.914062 145.507812 214.441406 146.472656 214.34375 C 147.433594 214.242188 148.214844 213.539062 148.414062 212.59375 L 156.675781 173.460938 L 171.042969 225.730469 C 171.285156 226.605469 172.0625 227.195312 172.960938 227.195312 " fill-opacity="1" fill-rule="nonzero"/></g><g fill="#004aad" fill-opacity="1"><g transform="translate(187.610778, 212.351487)"><g><path d="M 67.109375 -0.984375 C 67.273438 -0.984375 67.359375 -0.816406 67.359375 -0.484375 C 67.359375 -0.160156 67.273438 0 67.109375 0 C 65.398438 0 64.050781 -0.0234375 63.0625 -0.078125 L 57.359375 -0.171875 L 52.078125 -0.078125 C 51.191406 -0.0234375 49.953125 0 48.359375 0 C 48.242188 0 48.1875 -0.160156 48.1875 -0.484375 C 48.1875 -0.816406 48.242188 -0.984375 48.359375 -0.984375 C 50.234375 -0.984375 51.625 -1.132812 52.53125 -1.4375 C 53.4375 -1.75 54.039062 -2.289062 54.34375 -3.0625 C 54.644531 -3.832031 54.742188 -5.039062 54.640625 -6.6875 L 53.140625 -44.296875 L 34.296875 -0.578125 C 34.191406 -0.359375 33.972656 -0.25 33.640625 -0.25 C 33.367188 -0.25 33.117188 -0.359375 32.890625 -0.578125 L 12.5625 -43.8125 L 11.8125 -9.015625 C 11.757812 -6.085938 12.253906 -4.015625 13.296875 -2.796875 C 14.347656 -1.585938 16.195312 -0.984375 18.84375 -0.984375 C 18.957031 -0.984375 19.015625 -0.816406 19.015625 -0.484375 C 19.015625 -0.160156 18.957031 0 18.84375 0 C 17.300781 0 16.117188 -0.0234375 15.296875 -0.078125 L 10.828125 -0.171875 L 6.53125 -0.078125 C 5.757812 -0.0234375 4.65625 0 3.21875 0 C 3.113281 0 3.0625 -0.160156 3.0625 -0.484375 C 3.0625 -0.816406 3.113281 -0.984375 3.21875 -0.984375 C 5.53125 -0.984375 7.195312 -1.601562 8.21875 -2.84375 C 9.238281 -4.09375 9.78125 -6.148438 9.84375 -9.015625 L 10.578125 -47.359375 C 8.921875 -49.566406 6.660156 -50.671875 3.796875 -50.671875 C 3.691406 -50.671875 3.640625 -50.832031 3.640625 -51.15625 C 3.640625 -51.488281 3.691406 -51.65625 3.796875 -51.65625 L 6.859375 -51.578125 C 7.410156 -51.523438 8.179688 -51.5 9.171875 -51.5 C 10.160156 -51.5 11 -51.523438 11.6875 -51.578125 C 12.382812 -51.628906 12.925781 -51.65625 13.3125 -51.65625 C 14.019531 -51.65625 14.609375 -51.394531 15.078125 -50.875 C 15.546875 -50.351562 16.222656 -49.179688 17.109375 -47.359375 L 35.546875 -8.515625 L 53.5625 -49.59375 C 54.164062 -50.96875 54.992188 -51.65625 56.046875 -51.65625 C 56.316406 -51.65625 56.710938 -51.628906 57.234375 -51.578125 C 57.765625 -51.523438 58.46875 -51.5 59.34375 -51.5 L 63.234375 -51.578125 C 63.835938 -51.628906 64.742188 -51.65625 65.953125 -51.65625 C 66.117188 -51.65625 66.203125 -51.488281 66.203125 -51.15625 C 66.203125 -50.832031 66.117188 -50.671875 65.953125 -50.671875 C 63.203125 -50.671875 61.234375 -50.269531 60.046875 -49.46875 C 58.859375 -48.664062 58.296875 -47.164062 58.359375 -44.96875 L 60.015625 -6.6875 C 60.066406 -4.976562 60.269531 -3.738281 60.625 -2.96875 C 60.988281 -2.195312 61.632812 -1.671875 62.5625 -1.390625 C 63.5 -1.117188 65.015625 -0.984375 67.109375 -0.984375 Z M 67.109375 -0.984375 "/></g></g></g><g fill="#004aad" fill-opacity="1"><g transform="translate(256.69583, 212.351487)"><g><path d="M 27.4375 -29.09375 C 31.789062 -28.757812 35.300781 -27.3125 37.96875 -24.75 C 40.644531 -22.1875 41.984375 -19.003906 41.984375 -15.203125 C 41.984375 -12.285156 41.265625 -9.640625 39.828125 -7.265625 C 38.398438 -4.898438 36.429688 -3.039062 33.921875 -1.6875 C 31.421875 -0.34375 28.628906 0.328125 25.546875 0.328125 C 23.722656 0.328125 21.738281 0.242188 19.59375 0.078125 C 18.820312 0.0234375 17.910156 -0.0234375 16.859375 -0.078125 C 15.816406 -0.140625 14.660156 -0.171875 13.390625 -0.171875 L 7.765625 -0.078125 C 6.773438 -0.0234375 5.367188 0 3.546875 0 C 3.441406 0 3.390625 -0.160156 3.390625 -0.484375 C 3.390625 -0.816406 3.441406 -0.984375 3.546875 -0.984375 C 5.585938 -0.984375 7.101562 -1.132812 8.09375 -1.4375 C 9.09375 -1.75 9.785156 -2.289062 10.171875 -3.0625 C 10.554688 -3.832031 10.75 -5.039062 10.75 -6.6875 L 10.75 -44.96875 C 10.75 -46.613281 10.566406 -47.820312 10.203125 -48.59375 C 9.847656 -49.375 9.1875 -49.914062 8.21875 -50.21875 C 7.257812 -50.519531 5.757812 -50.671875 3.71875 -50.671875 C 3.550781 -50.671875 3.46875 -50.832031 3.46875 -51.15625 C 3.46875 -51.488281 3.550781 -51.65625 3.71875 -51.65625 L 7.765625 -51.578125 C 10.078125 -51.460938 11.953125 -51.40625 13.390625 -51.40625 C 14.378906 -51.40625 15.300781 -51.429688 16.15625 -51.484375 C 17.007812 -51.546875 17.738281 -51.601562 18.34375 -51.65625 C 20.050781 -51.820312 21.648438 -51.90625 23.140625 -51.90625 C 27.773438 -51.90625 31.25 -50.898438 33.5625 -48.890625 C 35.875 -46.878906 37.03125 -44.25 37.03125 -41 C 37.03125 -38.351562 36.175781 -35.992188 34.46875 -33.921875 C 32.757812 -31.859375 30.414062 -30.25 27.4375 -29.09375 Z M 21.40625 -50.671875 C 19.976562 -50.671875 18.90625 -50.546875 18.1875 -50.296875 C 17.46875 -50.046875 16.941406 -49.519531 16.609375 -48.71875 C 16.285156 -47.925781 16.125 -46.617188 16.125 -44.796875 L 16.125 -29.09375 L 19.84375 -29.015625 C 23.863281 -29.015625 26.835938 -30.046875 28.765625 -32.109375 C 30.691406 -34.179688 31.65625 -36.925781 31.65625 -40.34375 C 31.65625 -43.425781 30.8125 -45.914062 29.125 -47.8125 C 27.445312 -49.71875 24.875 -50.671875 21.40625 -50.671875 Z M 24.296875 -1.15625 C 28.316406 -1.15625 31.304688 -2.1875 33.265625 -4.25 C 35.222656 -6.320312 36.203125 -9.285156 36.203125 -13.140625 C 36.203125 -17.328125 34.972656 -20.710938 32.515625 -23.296875 C 30.066406 -25.890625 26.695312 -27.21875 22.40625 -27.28125 C 20.632812 -27.332031 18.539062 -27.273438 16.125 -27.109375 L 16.125 -6.6875 C 16.125 -5.257812 16.328125 -4.160156 16.734375 -3.390625 C 17.148438 -2.617188 17.945312 -2.050781 19.125 -1.6875 C 20.3125 -1.332031 22.035156 -1.15625 24.296875 -1.15625 Z M 24.296875 -1.15625 "/></g></g></g><g fill="#004aad" fill-opacity="1"><g transform="translate(302.807622, 212.351487)"><g><path d="M 16.453125 -6.6875 C 16.453125 -5.039062 16.613281 -3.816406 16.9375 -3.015625 C 17.269531 -2.210938 17.914062 -1.671875 18.875 -1.390625 C 19.84375 -1.117188 21.375 -0.984375 23.46875 -0.984375 C 23.632812 -0.984375 23.71875 -0.816406 23.71875 -0.484375 C 23.71875 -0.160156 23.632812 0 23.46875 0 C 21.820312 0 20.5 -0.0234375 19.5 -0.078125 L 13.640625 -0.171875 L 7.9375 -0.078125 C 6.945312 -0.0234375 5.597656 0 3.890625 0 C 3.722656 0 3.640625 -0.160156 3.640625 -0.484375 C 3.640625 -0.816406 3.722656 -0.984375 3.890625 -0.984375 C 5.984375 -0.984375 7.507812 -1.117188 8.46875 -1.390625 C 9.4375 -1.671875 10.097656 -2.210938 10.453125 -3.015625 C 10.816406 -3.816406 11 -5.039062 11 -6.6875 L 11 -44.96875 C 11 -46.613281 10.816406 -47.820312 10.453125 -48.59375 C 10.097656 -49.375 9.4375 -49.914062 8.46875 -50.21875 C 7.507812 -50.519531 5.984375 -50.671875 3.890625 -50.671875 C 3.722656 -50.671875 3.640625 -50.832031 3.640625 -51.15625 C 3.640625 -51.488281 3.722656 -51.65625 3.890625 -51.65625 L 7.9375 -51.578125 C 10.25 -51.460938 12.148438 -51.40625 13.640625 -51.40625 C 15.296875 -51.40625 17.28125 -51.460938 19.59375 -51.578125 L 23.46875 -51.65625 C 23.632812 -51.65625 23.71875 -51.488281 23.71875 -51.15625 C 23.71875 -50.832031 23.632812 -50.671875 23.46875 -50.671875 C 21.4375 -50.671875 19.9375 -50.503906 18.96875 -50.171875 C 18 -49.835938 17.335938 -49.269531 16.984375 -48.46875 C 16.628906 -47.675781 16.453125 -46.453125 16.453125 -44.796875 Z M 16.453125 -6.6875 "/></g></g></g><g fill="#004aad" fill-opacity="1"><g transform="translate(118.778903, 241.762559)"><g><path d="M 11.234375 -10 C 11.253906 -10 11.265625 -9.96875 11.265625 -9.90625 C 11.265625 -9.84375 11.253906 -9.8125 11.234375 -9.8125 C 10.941406 -9.8125 10.722656 -9.78125 10.578125 -9.71875 C 10.441406 -9.65625 10.332031 -9.550781 10.25 -9.40625 C 10.175781 -9.257812 10.109375 -9.023438 10.046875 -8.703125 L 8.734375 -1.296875 C 8.703125 -1.085938 8.6875 -0.914062 8.6875 -0.78125 C 8.6875 -0.550781 8.75 -0.394531 8.875 -0.3125 C 9 -0.226562 9.21875 -0.1875 9.53125 -0.1875 C 9.5625 -0.1875 9.578125 -0.15625 9.578125 -0.09375 C 9.578125 -0.03125 9.5625 0 9.53125 0 C 9.269531 0 9.050781 -0.00390625 8.875 -0.015625 L 7.796875 -0.03125 L 6.734375 -0.015625 C 6.554688 -0.00390625 6.304688 0 5.984375 0 C 5.960938 0 5.953125 -0.03125 5.953125 -0.09375 C 5.953125 -0.15625 5.960938 -0.1875 5.984375 -0.1875 C 6.285156 -0.1875 6.503906 -0.210938 6.640625 -0.265625 C 6.785156 -0.328125 6.894531 -0.429688 6.96875 -0.578125 C 7.039062 -0.722656 7.109375 -0.960938 7.171875 -1.296875 L 7.8125 -4.96875 L 3.625 -4.96875 L 2.96875 -1.296875 C 2.925781 -1.085938 2.90625 -0.90625 2.90625 -0.75 C 2.90625 -0.53125 2.96875 -0.378906 3.09375 -0.296875 C 3.21875 -0.222656 3.441406 -0.1875 3.765625 -0.1875 C 3.796875 -0.1875 3.8125 -0.15625 3.8125 -0.09375 C 3.8125 -0.03125 3.796875 0 3.765625 0 C 3.453125 0 3.207031 -0.00390625 3.03125 -0.015625 L 1.953125 -0.03125 L 0.921875 -0.015625 C 0.753906 -0.00390625 0.515625 0 0.203125 0 C 0.171875 0 0.15625 -0.03125 0.15625 -0.09375 C 0.15625 -0.15625 0.171875 -0.1875 0.203125 -0.1875 C 0.503906 -0.1875 0.726562 -0.210938 0.875 -0.265625 C 1.019531 -0.328125 1.128906 -0.429688 1.203125 -0.578125 C 1.273438 -0.722656 1.34375 -0.960938 1.40625 -1.296875 L 2.71875 -8.703125 C 2.757812 -8.984375 2.78125 -9.15625 2.78125 -9.21875 C 2.78125 -9.4375 2.71875 -9.585938 2.59375 -9.671875 C 2.46875 -9.765625 2.242188 -9.8125 1.921875 -9.8125 C 1.898438 -9.8125 1.890625 -9.84375 1.890625 -9.90625 C 1.890625 -9.96875 1.898438 -10 1.921875 -10 L 2.640625 -9.984375 C 3.066406 -9.960938 3.40625 -9.953125 3.65625 -9.953125 C 3.914062 -9.953125 4.269531 -9.960938 4.71875 -9.984375 L 5.46875 -10 C 5.488281 -10 5.5 -9.96875 5.5 -9.90625 C 5.5 -9.84375 5.488281 -9.8125 5.46875 -9.8125 C 5.1875 -9.8125 4.96875 -9.773438 4.8125 -9.703125 C 4.664062 -9.640625 4.554688 -9.53125 4.484375 -9.375 C 4.410156 -9.226562 4.34375 -8.992188 4.28125 -8.671875 L 3.71875 -5.421875 L 7.890625 -5.421875 L 8.46875 -8.671875 C 8.5 -8.878906 8.515625 -9.054688 8.515625 -9.203125 C 8.515625 -9.429688 8.453125 -9.585938 8.328125 -9.671875 C 8.210938 -9.765625 8.003906 -9.8125 7.703125 -9.8125 C 7.660156 -9.8125 7.640625 -9.84375 7.640625 -9.90625 C 7.640625 -9.96875 7.660156 -10 7.703125 -10 L 8.421875 -9.984375 C 8.847656 -9.960938 9.191406 -9.953125 9.453125 -9.953125 C 9.722656 -9.953125 10.070312 -9.960938 10.5 -9.984375 Z M 11.234375 -10 "/></g></g></g><g fill="#004aad" fill-opacity="1"><g transform="translate(134.376303, 241.762559)"><g><path d="M 4.3125 -6.390625 C 4.71875 -6.390625 5.03125 -6.316406 5.25 -6.171875 C 5.476562 -6.035156 5.59375 -5.84375 5.59375 -5.59375 C 5.59375 -5.113281 5.238281 -4.660156 4.53125 -4.234375 C 3.820312 -3.816406 2.96875 -3.515625 1.96875 -3.328125 C 1.9375 -3.085938 1.921875 -2.859375 1.921875 -2.640625 C 1.921875 -2.003906 2.050781 -1.488281 2.3125 -1.09375 C 2.582031 -0.707031 2.976562 -0.515625 3.5 -0.515625 C 3.726562 -0.515625 3.972656 -0.550781 4.234375 -0.625 C 4.492188 -0.707031 4.726562 -0.835938 4.9375 -1.015625 L 4.953125 -1.015625 C 4.992188 -1.015625 5.023438 -0.992188 5.046875 -0.953125 C 5.078125 -0.921875 5.082031 -0.894531 5.0625 -0.875 C 4.675781 -0.5 4.269531 -0.226562 3.84375 -0.0625 C 3.414062 0.101562 2.988281 0.1875 2.5625 0.1875 C 1.820312 0.1875 1.269531 -0.0351562 0.90625 -0.484375 C 0.539062 -0.929688 0.359375 -1.492188 0.359375 -2.171875 C 0.359375 -2.410156 0.382812 -2.671875 0.4375 -2.953125 C 0.539062 -3.535156 0.773438 -4.085938 1.140625 -4.609375 C 1.515625 -5.128906 1.976562 -5.554688 2.53125 -5.890625 C 3.082031 -6.222656 3.675781 -6.390625 4.3125 -6.390625 Z M 3.984375 -5.1875 C 3.992188 -5.226562 4 -5.289062 4 -5.375 C 4 -5.550781 3.953125 -5.691406 3.859375 -5.796875 C 3.773438 -5.898438 3.648438 -5.953125 3.484375 -5.953125 C 3.140625 -5.953125 2.835938 -5.734375 2.578125 -5.296875 C 2.316406 -4.859375 2.125 -4.285156 2 -3.578125 C 3.226562 -3.898438 3.890625 -4.4375 3.984375 -5.1875 Z M 3.984375 -5.1875 "/></g></g></g><g fill="#004aad" fill-opacity="1"><g transform="translate(144.88692, 241.762559)"><g><path d="M 6.640625 -1.234375 C 6.648438 -1.242188 6.664062 -1.25 6.6875 -1.25 C 6.71875 -1.25 6.742188 -1.226562 6.765625 -1.1875 C 6.785156 -1.15625 6.785156 -1.128906 6.765625 -1.109375 C 6.085938 -0.273438 5.488281 0.140625 4.96875 0.140625 C 4.695312 0.140625 4.492188 0.0664062 4.359375 -0.078125 C 4.234375 -0.234375 4.171875 -0.476562 4.171875 -0.8125 C 4.171875 -1 4.1875 -1.203125 4.21875 -1.421875 L 4.421875 -2.515625 C 4.015625 -1.660156 3.53125 -0.992188 2.96875 -0.515625 C 2.40625 -0.0351562 1.859375 0.203125 1.328125 0.203125 C 0.992188 0.203125 0.726562 0.101562 0.53125 -0.09375 C 0.34375 -0.300781 0.25 -0.609375 0.25 -1.015625 C 0.25 -1.722656 0.488281 -2.5 0.96875 -3.34375 C 1.445312 -4.195312 2.035156 -4.914062 2.734375 -5.5 C 3.429688 -6.09375 4.085938 -6.390625 4.703125 -6.390625 C 4.890625 -6.390625 5.085938 -6.351562 5.296875 -6.28125 C 5.503906 -6.207031 5.6875 -6.101562 5.84375 -5.96875 C 6.039062 -6.113281 6.207031 -6.296875 6.34375 -6.515625 C 6.363281 -6.535156 6.382812 -6.546875 6.40625 -6.546875 C 6.4375 -6.546875 6.46875 -6.535156 6.5 -6.515625 C 6.53125 -6.492188 6.539062 -6.476562 6.53125 -6.46875 L 5.59375 -1.421875 C 5.5625 -1.285156 5.546875 -1.164062 5.546875 -1.0625 C 5.546875 -0.800781 5.625 -0.671875 5.78125 -0.671875 C 5.976562 -0.671875 6.265625 -0.859375 6.640625 -1.234375 Z M 2.359375 -0.953125 C 2.671875 -0.953125 2.992188 -1.117188 3.328125 -1.453125 C 3.671875 -1.796875 3.96875 -2.207031 4.21875 -2.6875 C 4.46875 -3.175781 4.628906 -3.628906 4.703125 -4.046875 C 4.734375 -4.222656 4.75 -4.382812 4.75 -4.53125 C 4.75 -4.875 4.671875 -5.132812 4.515625 -5.3125 C 4.359375 -5.5 4.144531 -5.59375 3.875 -5.59375 C 3.382812 -5.59375 2.945312 -5.328125 2.5625 -4.796875 C 2.1875 -4.273438 1.925781 -3.59375 1.78125 -2.75 C 1.726562 -2.40625 1.703125 -2.148438 1.703125 -1.984375 C 1.703125 -1.628906 1.757812 -1.367188 1.875 -1.203125 C 1.988281 -1.035156 2.148438 -0.953125 2.359375 -0.953125 Z M 2.359375 -0.953125 "/></g></g></g><g fill="#004aad" fill-opacity="1"><g transform="translate(156.789206, 241.762559)"><g><path d="M 1.5 0.140625 C 0.988281 0.140625 0.734375 -0.160156 0.734375 -0.765625 C 0.734375 -0.984375 0.753906 -1.203125 0.796875 -1.421875 L 2.265625 -9.421875 C 2.296875 -9.640625 2.3125 -9.816406 2.3125 -9.953125 C 2.3125 -10.265625 2.210938 -10.421875 2.015625 -10.421875 C 1.890625 -10.421875 1.664062 -10.34375 1.34375 -10.1875 L 1.328125 -10.1875 C 1.273438 -10.1875 1.242188 -10.21875 1.234375 -10.28125 C 1.222656 -10.34375 1.238281 -10.378906 1.28125 -10.390625 L 3.765625 -11.59375 L 3.796875 -11.59375 C 3.835938 -11.59375 3.875 -11.578125 3.90625 -11.546875 C 3.945312 -11.515625 3.960938 -11.488281 3.953125 -11.46875 L 2.15625 -1.421875 C 2.125 -1.265625 2.109375 -1.132812 2.109375 -1.03125 C 2.109375 -0.789062 2.191406 -0.671875 2.359375 -0.671875 C 2.460938 -0.671875 2.578125 -0.71875 2.703125 -0.8125 C 2.835938 -0.90625 3.003906 -1.046875 3.203125 -1.234375 C 3.222656 -1.253906 3.242188 -1.265625 3.265625 -1.265625 C 3.296875 -1.265625 3.320312 -1.242188 3.34375 -1.203125 C 3.363281 -1.171875 3.359375 -1.140625 3.328125 -1.109375 C 2.960938 -0.679688 2.640625 -0.363281 2.359375 -0.15625 C 2.085938 0.0390625 1.800781 0.140625 1.5 0.140625 Z M 1.5 0.140625 "/></g></g></g><g fill="#004aad" fill-opacity="1"><g transform="translate(165.540248, 241.762559)"><g><path d="M 4.859375 -6.171875 C 4.929688 -6.171875 4.96875 -6.125 4.96875 -6.03125 C 4.96875 -5.945312 4.90625 -5.816406 4.78125 -5.640625 C 4.664062 -5.472656 4.554688 -5.390625 4.453125 -5.390625 C 4.421875 -5.390625 4.242188 -5.414062 3.921875 -5.46875 C 3.609375 -5.519531 3.253906 -5.554688 2.859375 -5.578125 L 2.1875 -1.78125 C 2.164062 -1.601562 2.15625 -1.484375 2.15625 -1.421875 C 2.15625 -1.171875 2.222656 -0.984375 2.359375 -0.859375 C 2.492188 -0.742188 2.695312 -0.6875 2.96875 -0.6875 C 3.375 -0.6875 3.820312 -0.882812 4.3125 -1.28125 L 4.34375 -1.28125 C 4.382812 -1.28125 4.421875 -1.265625 4.453125 -1.234375 C 4.484375 -1.203125 4.484375 -1.171875 4.453125 -1.140625 C 3.960938 -0.671875 3.523438 -0.332031 3.140625 -0.125 C 2.765625 0.0820312 2.390625 0.1875 2.015625 0.1875 C 1.148438 0.1875 0.71875 -0.195312 0.71875 -0.96875 C 0.71875 -1.132812 0.734375 -1.3125 0.765625 -1.5 L 1.390625 -4.890625 C 1.421875 -5.078125 1.4375 -5.226562 1.4375 -5.34375 C 1.4375 -5.5 1.394531 -5.601562 1.3125 -5.65625 C 1.226562 -5.71875 1.070312 -5.75 0.84375 -5.75 C 0.8125 -5.75 0.796875 -5.785156 0.796875 -5.859375 C 0.796875 -5.953125 0.8125 -6 0.84375 -6 C 1.695312 -6 2.375 -6.46875 2.875 -7.40625 C 2.894531 -7.4375 2.929688 -7.453125 2.984375 -7.453125 C 3.046875 -7.453125 3.097656 -7.441406 3.140625 -7.421875 C 3.179688 -7.398438 3.195312 -7.378906 3.1875 -7.359375 L 2.9375 -6.046875 C 3.238281 -6.054688 3.492188 -6.066406 3.703125 -6.078125 C 3.921875 -6.097656 4.101562 -6.113281 4.25 -6.125 C 4.53125 -6.15625 4.734375 -6.171875 4.859375 -6.171875 Z M 4.859375 -6.171875 "/></g></g></g><g fill="#004aad" fill-opacity="1"><g transform="translate(175.155081, 241.762559)"><g><path d="M 6.8125 -1.234375 C 6.832031 -1.253906 6.847656 -1.265625 6.859375 -1.265625 C 6.890625 -1.265625 6.914062 -1.242188 6.9375 -1.203125 C 6.96875 -1.171875 6.96875 -1.140625 6.9375 -1.109375 C 6.582031 -0.679688 6.257812 -0.363281 5.96875 -0.15625 C 5.6875 0.0390625 5.398438 0.140625 5.109375 0.140625 C 4.597656 0.140625 4.34375 -0.15625 4.34375 -0.75 C 4.34375 -0.90625 4.367188 -1.128906 4.421875 -1.421875 L 4.875 -3.96875 C 4.925781 -4.269531 4.953125 -4.507812 4.953125 -4.6875 C 4.953125 -5.207031 4.785156 -5.46875 4.453125 -5.46875 C 4.148438 -5.46875 3.84375 -5.28125 3.53125 -4.90625 C 3.21875 -4.53125 2.914062 -3.972656 2.625 -3.234375 C 2.34375 -2.492188 2.109375 -1.613281 1.921875 -0.59375 L 1.859375 -0.1875 C 1.804688 0.0195312 1.503906 0.125 0.953125 0.125 C 0.609375 0.125 0.4375 0.0820312 0.4375 0 L 0.5 -0.34375 C 0.601562 -0.84375 0.660156 -1.125 0.671875 -1.1875 L 2.171875 -9.421875 C 2.203125 -9.640625 2.21875 -9.816406 2.21875 -9.953125 C 2.21875 -10.265625 2.117188 -10.421875 1.921875 -10.421875 C 1.796875 -10.421875 1.570312 -10.34375 1.25 -10.1875 L 1.234375 -10.1875 C 1.191406 -10.1875 1.160156 -10.21875 1.140625 -10.28125 C 1.128906 -10.34375 1.144531 -10.378906 1.1875 -10.390625 L 3.65625 -11.59375 L 3.703125 -11.59375 C 3.742188 -11.59375 3.78125 -11.578125 3.8125 -11.546875 C 3.851562 -11.515625 3.867188 -11.488281 3.859375 -11.46875 L 2.453125 -3.515625 C 2.804688 -4.421875 3.226562 -5.125 3.71875 -5.625 C 4.207031 -6.132812 4.722656 -6.390625 5.265625 -6.390625 C 6.003906 -6.390625 6.375 -5.945312 6.375 -5.0625 C 6.375 -4.851562 6.34375 -4.585938 6.28125 -4.265625 L 5.765625 -1.421875 C 5.734375 -1.265625 5.71875 -1.140625 5.71875 -1.046875 C 5.71875 -0.796875 5.800781 -0.671875 5.96875 -0.671875 C 6.070312 -0.671875 6.191406 -0.71875 6.328125 -0.8125 C 6.460938 -0.90625 6.625 -1.046875 6.8125 -1.234375 Z M 6.8125 -1.234375 "/></g></g></g><g fill="#004aad" fill-opacity="1"><g transform="translate(187.233324, 241.762559)"><g/></g></g><g fill="#004aad" fill-opacity="1"><g transform="translate(195.776418, 241.762559)"><g><path d="M 8.25 -10 C 8.34375 -10 8.378906 -9.953125 8.359375 -9.859375 L 8.21875 -9.046875 L 8.015625 -7.71875 C 8.003906 -7.675781 7.976562 -7.65625 7.9375 -7.65625 C 7.914062 -7.65625 7.890625 -7.664062 7.859375 -7.6875 C 7.835938 -7.707031 7.828125 -7.722656 7.828125 -7.734375 C 7.773438 -8.328125 7.5625 -8.796875 7.1875 -9.140625 C 6.8125 -9.484375 6.332031 -9.65625 5.75 -9.65625 L 5.46875 -9.65625 C 5.164062 -9.65625 4.941406 -9.628906 4.796875 -9.578125 C 4.660156 -9.535156 4.5625 -9.453125 4.5 -9.328125 C 4.445312 -9.203125 4.382812 -8.988281 4.3125 -8.6875 L 3.71875 -5.234375 L 5.1875 -5.234375 C 5.664062 -5.234375 6.035156 -5.328125 6.296875 -5.515625 C 6.566406 -5.710938 6.75 -6.03125 6.84375 -6.46875 C 6.84375 -6.5 6.875 -6.515625 6.9375 -6.515625 C 6.957031 -6.515625 6.984375 -6.503906 7.015625 -6.484375 C 7.046875 -6.472656 7.054688 -6.457031 7.046875 -6.4375 C 6.992188 -6.132812 6.925781 -5.800781 6.84375 -5.4375 C 6.84375 -5.394531 6.816406 -5.253906 6.765625 -5.015625 L 6.703125 -4.59375 C 6.660156 -4.28125 6.597656 -3.875 6.515625 -3.375 C 6.503906 -3.332031 6.460938 -3.3125 6.390625 -3.3125 C 6.328125 -3.320312 6.300781 -3.347656 6.3125 -3.390625 C 6.34375 -3.535156 6.359375 -3.644531 6.359375 -3.71875 C 6.359375 -4.0625 6.242188 -4.320312 6.015625 -4.5 C 5.796875 -4.6875 5.484375 -4.78125 5.078125 -4.78125 L 3.625 -4.78125 L 3.03125 -1.359375 C 2.988281 -1.191406 2.96875 -1.046875 2.96875 -0.921875 C 2.96875 -0.640625 3.066406 -0.445312 3.265625 -0.34375 C 3.460938 -0.238281 3.832031 -0.1875 4.375 -0.1875 C 4.394531 -0.1875 4.40625 -0.15625 4.40625 -0.09375 C 4.40625 -0.03125 4.394531 0 4.375 0 C 4.144531 0 3.953125 -0.00390625 3.796875 -0.015625 L 1.984375 -0.03125 L 0.953125 -0.015625 C 0.785156 -0.00390625 0.546875 0 0.234375 0 C 0.210938 0 0.203125 -0.03125 0.203125 -0.09375 C 0.203125 -0.15625 0.210938 -0.1875 0.234375 -0.1875 C 0.535156 -0.1875 0.757812 -0.210938 0.90625 -0.265625 C 1.0625 -0.328125 1.175781 -0.429688 1.25 -0.578125 C 1.320312 -0.734375 1.382812 -0.972656 1.4375 -1.296875 L 2.75 -8.703125 C 2.789062 -8.984375 2.8125 -9.160156 2.8125 -9.234375 C 2.8125 -9.453125 2.75 -9.601562 2.625 -9.6875 C 2.5 -9.769531 2.28125 -9.8125 1.96875 -9.8125 C 1.9375 -9.8125 1.921875 -9.84375 1.921875 -9.90625 C 1.921875 -9.96875 1.9375 -10 1.96875 -10 Z M 8.25 -10 "/></g></g></g><g fill="#004aad" fill-opacity="1"><g transform="translate(208.334545, 241.762559)"><g><path d="M 2.765625 -7.984375 C 2.492188 -7.984375 2.273438 -8.066406 2.109375 -8.234375 C 1.941406 -8.398438 1.859375 -8.625 1.859375 -8.90625 C 1.859375 -9.164062 1.941406 -9.375 2.109375 -9.53125 C 2.273438 -9.695312 2.492188 -9.78125 2.765625 -9.78125 C 3.046875 -9.78125 3.257812 -9.695312 3.40625 -9.53125 C 3.5625 -9.375 3.640625 -9.164062 3.640625 -8.90625 C 3.640625 -8.613281 3.5625 -8.382812 3.40625 -8.21875 C 3.257812 -8.0625 3.046875 -7.984375 2.765625 -7.984375 Z M 1.703125 0.140625 C 1.179688 0.140625 0.921875 -0.15625 0.921875 -0.75 C 0.921875 -0.90625 0.953125 -1.128906 1.015625 -1.421875 L 1.65625 -4.75 C 1.695312 -4.894531 1.71875 -5.019531 1.71875 -5.125 C 1.71875 -5.257812 1.6875 -5.359375 1.625 -5.421875 C 1.570312 -5.492188 1.503906 -5.53125 1.421875 -5.53125 C 1.203125 -5.53125 0.898438 -5.316406 0.515625 -4.890625 C 0.503906 -4.878906 0.488281 -4.875 0.46875 -4.875 C 0.425781 -4.875 0.394531 -4.890625 0.375 -4.921875 C 0.351562 -4.960938 0.351562 -5.003906 0.375 -5.046875 C 0.75 -5.492188 1.09375 -5.816406 1.40625 -6.015625 C 1.71875 -6.210938 2.019531 -6.3125 2.3125 -6.3125 C 2.832031 -6.3125 3.09375 -6.035156 3.09375 -5.484375 C 3.09375 -5.304688 3.070312 -5.125 3.03125 -4.9375 L 2.359375 -1.421875 C 2.328125 -1.328125 2.3125 -1.207031 2.3125 -1.0625 C 2.3125 -0.800781 2.394531 -0.671875 2.5625 -0.671875 C 2.664062 -0.671875 2.785156 -0.71875 2.921875 -0.8125 C 3.054688 -0.90625 3.21875 -1.046875 3.40625 -1.234375 C 3.425781 -1.253906 3.445312 -1.265625 3.46875 -1.265625 C 3.5 -1.265625 3.523438 -1.242188 3.546875 -1.203125 C 3.566406 -1.171875 3.5625 -1.140625 3.53125 -1.109375 C 3.164062 -0.679688 2.84375 -0.363281 2.5625 -0.15625 C 2.28125 0.0390625 1.992188 0.140625 1.703125 0.140625 Z M 1.703125 0.140625 "/></g></g></g><g fill="#004aad" fill-opacity="1"><g transform="translate(217.08559, 241.762559)"><g><path d="M 4.75 -6.3125 C 5.03125 -6.3125 5.296875 -6.210938 5.546875 -6.015625 C 5.796875 -5.816406 5.898438 -5.585938 5.859375 -5.328125 C 5.835938 -5.171875 5.757812 -5.019531 5.625 -4.875 C 5.5 -4.738281 5.34375 -4.671875 5.15625 -4.671875 C 4.957031 -4.671875 4.75 -4.757812 4.53125 -4.9375 C 4.457031 -5 4.378906 -5.050781 4.296875 -5.09375 C 4.222656 -5.132812 4.148438 -5.15625 4.078125 -5.15625 C 3.898438 -5.15625 3.675781 -4.867188 3.40625 -4.296875 C 3.144531 -3.734375 2.890625 -3.0625 2.640625 -2.28125 C 2.398438 -1.5 2.226562 -0.804688 2.125 -0.203125 L 2.125 -0.1875 C 2.101562 -0.09375 2.015625 -0.0195312 1.859375 0.03125 C 1.710938 0.09375 1.503906 0.125 1.234375 0.125 C 0.878906 0.125 0.703125 0.0820312 0.703125 0 C 0.710938 -0.0703125 0.742188 -0.226562 0.796875 -0.46875 C 0.859375 -0.71875 0.910156 -0.957031 0.953125 -1.1875 L 1.609375 -4.75 C 1.628906 -4.925781 1.640625 -5.039062 1.640625 -5.09375 C 1.640625 -5.382812 1.546875 -5.53125 1.359375 -5.53125 C 1.148438 -5.53125 0.847656 -5.316406 0.453125 -4.890625 C 0.441406 -4.878906 0.425781 -4.875 0.40625 -4.875 C 0.363281 -4.875 0.328125 -4.890625 0.296875 -4.921875 C 0.273438 -4.960938 0.28125 -5.003906 0.3125 -5.046875 C 0.695312 -5.492188 1.039062 -5.816406 1.34375 -6.015625 C 1.65625 -6.210938 1.960938 -6.3125 2.265625 -6.3125 C 2.535156 -6.3125 2.726562 -6.238281 2.84375 -6.09375 C 2.96875 -5.957031 3.03125 -5.75 3.03125 -5.46875 C 3.03125 -5.3125 3.007812 -5.132812 2.96875 -4.9375 L 2.65625 -3.1875 C 3.28125 -5.269531 3.976562 -6.3125 4.75 -6.3125 Z M 4.75 -6.3125 "/></g></g></g><g fill="#004aad" fill-opacity="1"><g transform="translate(227.580222, 241.762559)"><g><path d="M 1.734375 0.171875 C 1.273438 0.171875 0.882812 0.0703125 0.5625 -0.125 C 0.238281 -0.332031 0.078125 -0.578125 0.078125 -0.859375 C 0.078125 -1.109375 0.144531 -1.296875 0.28125 -1.421875 C 0.425781 -1.554688 0.597656 -1.625 0.796875 -1.625 C 0.984375 -1.625 1.128906 -1.578125 1.234375 -1.484375 C 1.335938 -1.390625 1.457031 -1.238281 1.59375 -1.03125 C 1.738281 -0.800781 1.867188 -0.632812 1.984375 -0.53125 C 2.109375 -0.425781 2.28125 -0.375 2.5 -0.375 C 2.675781 -0.375 2.8125 -0.421875 2.90625 -0.515625 C 3 -0.617188 3.0625 -0.785156 3.09375 -1.015625 C 3.101562 -1.054688 3.109375 -1.117188 3.109375 -1.203125 C 3.109375 -1.503906 3.015625 -1.769531 2.828125 -2 C 2.648438 -2.226562 2.367188 -2.488281 1.984375 -2.78125 C 1.597656 -3.101562 1.3125 -3.378906 1.125 -3.609375 C 0.9375 -3.835938 0.84375 -4.113281 0.84375 -4.4375 C 0.84375 -4.5 0.851562 -4.59375 0.875 -4.71875 C 0.925781 -4.988281 1.0625 -5.242188 1.28125 -5.484375 C 1.5 -5.734375 1.78125 -5.9375 2.125 -6.09375 C 2.476562 -6.257812 2.859375 -6.34375 3.265625 -6.34375 C 3.773438 -6.34375 4.171875 -6.253906 4.453125 -6.078125 C 4.734375 -5.910156 4.859375 -5.675781 4.828125 -5.375 C 4.796875 -5.175781 4.707031 -5.015625 4.5625 -4.890625 C 4.425781 -4.773438 4.273438 -4.71875 4.109375 -4.71875 C 3.890625 -4.71875 3.722656 -4.769531 3.609375 -4.875 C 3.503906 -4.976562 3.410156 -5.125 3.328125 -5.3125 C 3.234375 -5.5 3.132812 -5.640625 3.03125 -5.734375 C 2.9375 -5.835938 2.785156 -5.890625 2.578125 -5.890625 C 2.398438 -5.890625 2.265625 -5.835938 2.171875 -5.734375 C 2.078125 -5.628906 2.019531 -5.515625 2 -5.390625 C 1.988281 -5.347656 1.984375 -5.285156 1.984375 -5.203125 C 1.984375 -4.921875 2.070312 -4.671875 2.25 -4.453125 C 2.4375 -4.242188 2.71875 -3.992188 3.09375 -3.703125 C 3.5 -3.367188 3.796875 -3.082031 3.984375 -2.84375 C 4.171875 -2.601562 4.265625 -2.320312 4.265625 -2 C 4.265625 -1.945312 4.253906 -1.859375 4.234375 -1.734375 C 4.179688 -1.441406 4.039062 -1.148438 3.8125 -0.859375 C 3.59375 -0.566406 3.300781 -0.320312 2.9375 -0.125 C 2.570312 0.0703125 2.171875 0.171875 1.734375 0.171875 Z M 1.734375 0.171875 "/></g></g></g><g fill="#004aad" fill-opacity="1"><g transform="translate(237.435003, 241.762559)"><g><path d="M 4.859375 -6.171875 C 4.929688 -6.171875 4.96875 -6.125 4.96875 -6.03125 C 4.96875 -5.945312 4.90625 -5.816406 4.78125 -5.640625 C 4.664062 -5.472656 4.554688 -5.390625 4.453125 -5.390625 C 4.421875 -5.390625 4.242188 -5.414062 3.921875 -5.46875 C 3.609375 -5.519531 3.253906 -5.554688 2.859375 -5.578125 L 2.1875 -1.78125 C 2.164062 -1.601562 2.15625 -1.484375 2.15625 -1.421875 C 2.15625 -1.171875 2.222656 -0.984375 2.359375 -0.859375 C 2.492188 -0.742188 2.695312 -0.6875 2.96875 -0.6875 C 3.375 -0.6875 3.820312 -0.882812 4.3125 -1.28125 L 4.34375 -1.28125 C 4.382812 -1.28125 4.421875 -1.265625 4.453125 -1.234375 C 4.484375 -1.203125 4.484375 -1.171875 4.453125 -1.140625 C 3.960938 -0.671875 3.523438 -0.332031 3.140625 -0.125 C 2.765625 0.0820312 2.390625 0.1875 2.015625 0.1875 C 1.148438 0.1875 0.71875 -0.195312 0.71875 -0.96875 C 0.71875 -1.132812 0.734375 -1.3125 0.765625 -1.5 L 1.390625 -4.890625 C 1.421875 -5.078125 1.4375 -5.226562 1.4375 -5.34375 C 1.4375 -5.5 1.394531 -5.601562 1.3125 -5.65625 C 1.226562 -5.71875 1.070312 -5.75 0.84375 -5.75 C 0.8125 -5.75 0.796875 -5.785156 0.796875 -5.859375 C 0.796875 -5.953125 0.8125 -6 0.84375 -6 C 1.695312 -6 2.375 -6.46875 2.875 -7.40625 C 2.894531 -7.4375 2.929688 -7.453125 2.984375 -7.453125 C 3.046875 -7.453125 3.097656 -7.441406 3.140625 -7.421875 C 3.179688 -7.398438 3.195312 -7.378906 3.1875 -7.359375 L 2.9375 -6.046875 C 3.238281 -6.054688 3.492188 -6.066406 3.703125 -6.078125 C 3.921875 -6.097656 4.101562 -6.113281 4.25 -6.125 C 4.53125 -6.15625 4.734375 -6.171875 4.859375 -6.171875 Z M 4.859375 -6.171875 "/></g></g></g><g fill="#004aad" fill-opacity="1"><g transform="translate(247.049837, 241.762559)"><g><path d="M 1.3125 -1.65625 C 1.644531 -1.65625 1.898438 -1.554688 2.078125 -1.359375 C 2.253906 -1.160156 2.34375 -0.878906 2.34375 -0.515625 C 2.34375 -0.296875 2.316406 -0.0976562 2.265625 0.078125 C 2.179688 0.492188 1.96875 0.929688 1.625 1.390625 C 1.289062 1.847656 0.894531 2.238281 0.4375 2.5625 C 0.425781 2.570312 0.410156 2.578125 0.390625 2.578125 C 0.359375 2.578125 0.328125 2.554688 0.296875 2.515625 C 0.273438 2.472656 0.28125 2.441406 0.3125 2.421875 C 1.03125 1.785156 1.445312 1.113281 1.5625 0.40625 C 1.582031 0.289062 1.59375 0.21875 1.59375 0.1875 C 1.59375 0.132812 1.582031 0.078125 1.5625 0.015625 C 1.488281 0.0859375 1.363281 0.125 1.1875 0.125 C 0.914062 0.125 0.707031 0.0390625 0.5625 -0.125 C 0.414062 -0.300781 0.34375 -0.503906 0.34375 -0.734375 C 0.34375 -0.992188 0.421875 -1.210938 0.578125 -1.390625 C 0.742188 -1.566406 0.988281 -1.65625 1.3125 -1.65625 Z M 1.3125 -1.65625 "/></g></g></g><g fill="#004aad" fill-opacity="1"><g transform="translate(255.592931, 241.762559)"><g/></g></g><g fill="#004aad" fill-opacity="1"><g transform="translate(264.136025, 241.762559)"><g><path d="M 9.171875 -0.1875 C 9.210938 -0.1875 9.234375 -0.15625 9.234375 -0.09375 C 9.234375 -0.03125 9.210938 0 9.171875 0 C 8.992188 0 8.726562 -0.0078125 8.375 -0.03125 C 7.96875 -0.0507812 7.640625 -0.0625 7.390625 -0.0625 C 7.160156 -0.0625 6.851562 -0.0507812 6.46875 -0.03125 C 6.125 -0.0078125 5.867188 0 5.703125 0 C 5.648438 0 5.625 -0.03125 5.625 -0.09375 C 5.625 -0.15625 5.648438 -0.1875 5.703125 -0.1875 C 6.015625 -0.1875 6.238281 -0.234375 6.375 -0.328125 C 6.519531 -0.429688 6.59375 -0.597656 6.59375 -0.828125 C 6.59375 -1.003906 6.570312 -1.175781 6.53125 -1.34375 L 6.0625 -3.65625 L 2.953125 -3.65625 L 2.078125 -2.0625 C 1.796875 -1.5625 1.65625 -1.171875 1.65625 -0.890625 C 1.65625 -0.648438 1.753906 -0.472656 1.953125 -0.359375 C 2.160156 -0.242188 2.472656 -0.1875 2.890625 -0.1875 C 2.929688 -0.1875 2.945312 -0.15625 2.9375 -0.09375 C 2.9375 -0.03125 2.914062 0 2.875 0 C 2.738281 0 2.46875 -0.0078125 2.0625 -0.03125 C 1.570312 -0.0507812 1.191406 -0.0625 0.921875 -0.0625 C 0.703125 -0.0625 0.441406 -0.0507812 0.140625 -0.03125 C -0.148438 -0.0078125 -0.378906 0 -0.546875 0 C -0.585938 0 -0.609375 -0.03125 -0.609375 -0.09375 C -0.609375 -0.15625 -0.585938 -0.1875 -0.546875 -0.1875 C -0.242188 -0.1875 0.109375 -0.359375 0.515625 -0.703125 C 0.921875 -1.046875 1.296875 -1.535156 1.640625 -2.171875 L 6.109375 -10.140625 C 6.128906 -10.171875 6.171875 -10.1875 6.234375 -10.1875 C 6.265625 -10.1875 6.296875 -10.179688 6.328125 -10.171875 C 6.367188 -10.160156 6.394531 -10.144531 6.40625 -10.125 L 8.140625 -1.34375 C 8.203125 -0.988281 8.257812 -0.742188 8.3125 -0.609375 C 8.363281 -0.472656 8.453125 -0.367188 8.578125 -0.296875 C 8.703125 -0.222656 8.898438 -0.1875 9.171875 -0.1875 Z M 3.203125 -4.109375 L 5.96875 -4.109375 L 5.234375 -7.796875 Z M 3.203125 -4.109375 "/></g></g></g><g fill="#004aad" fill-opacity="1"><g transform="translate(278.613692, 241.762559)"><g><path d="M 1.5 0.140625 C 0.988281 0.140625 0.734375 -0.160156 0.734375 -0.765625 C 0.734375 -0.984375 0.753906 -1.203125 0.796875 -1.421875 L 2.265625 -9.421875 C 2.296875 -9.640625 2.3125 -9.816406 2.3125 -9.953125 C 2.3125 -10.265625 2.210938 -10.421875 2.015625 -10.421875 C 1.890625 -10.421875 1.664062 -10.34375 1.34375 -10.1875 L 1.328125 -10.1875 C 1.273438 -10.1875 1.242188 -10.21875 1.234375 -10.28125 C 1.222656 -10.34375 1.238281 -10.378906 1.28125 -10.390625 L 3.765625 -11.59375 L 3.796875 -11.59375 C 3.835938 -11.59375 3.875 -11.578125 3.90625 -11.546875 C 3.945312 -11.515625 3.960938 -11.488281 3.953125 -11.46875 L 2.15625 -1.421875 C 2.125 -1.265625 2.109375 -1.132812 2.109375 -1.03125 C 2.109375 -0.789062 2.191406 -0.671875 2.359375 -0.671875 C 2.460938 -0.671875 2.578125 -0.71875 2.703125 -0.8125 C 2.835938 -0.90625 3.003906 -1.046875 3.203125 -1.234375 C 3.222656 -1.253906 3.242188 -1.265625 3.265625 -1.265625 C 3.296875 -1.265625 3.320312 -1.242188 3.34375 -1.203125 C 3.363281 -1.171875 3.359375 -1.140625 3.328125 -1.109375 C 2.960938 -0.679688 2.640625 -0.363281 2.359375 -0.15625 C 2.085938 0.0390625 1.800781 0.140625 1.5 0.140625 Z M 1.5 0.140625 "/></g></g></g><g fill="#004aad" fill-opacity="1"><g transform="translate(287.364737, 241.762559)"><g><path d="M 8.640625 -6.34375 C 8.929688 -6.34375 9.144531 -6.242188 9.28125 -6.046875 C 9.425781 -5.859375 9.5 -5.519531 9.5 -5.03125 C 9.5 -4.738281 9.488281 -4.5 9.46875 -4.3125 C 9.394531 -3.53125 9.191406 -2.789062 8.859375 -2.09375 C 8.523438 -1.394531 8.113281 -0.835938 7.625 -0.421875 C 7.132812 -0.00390625 6.648438 0.203125 6.171875 0.203125 C 5.578125 0.203125 5.128906 -0.117188 4.828125 -0.765625 C 4.234375 -0.117188 3.632812 0.203125 3.03125 0.203125 C 2.539062 0.203125 2.164062 0.0507812 1.90625 -0.25 C 1.644531 -0.550781 1.515625 -0.96875 1.515625 -1.5 C 1.515625 -1.6875 1.53125 -1.878906 1.5625 -2.078125 C 1.6875 -2.804688 2.015625 -3.617188 2.546875 -4.515625 C 2.640625 -4.660156 2.6875 -4.769531 2.6875 -4.84375 C 2.6875 -4.914062 2.625 -4.953125 2.5 -4.953125 L 1.734375 -4.953125 C 1.359375 -4.953125 1.082031 -4.898438 0.90625 -4.796875 C 0.738281 -4.691406 0.613281 -4.515625 0.53125 -4.265625 C 0.507812 -4.222656 0.476562 -4.203125 0.4375 -4.203125 C 0.40625 -4.203125 0.375 -4.210938 0.34375 -4.234375 C 0.320312 -4.253906 0.320312 -4.28125 0.34375 -4.3125 C 0.507812 -4.820312 0.65625 -5.203125 0.78125 -5.453125 C 0.914062 -5.710938 1.078125 -5.898438 1.265625 -6.015625 C 1.453125 -6.128906 1.703125 -6.1875 2.015625 -6.1875 L 3.5 -6.1875 C 3.625 -6.1875 3.6875 -6.164062 3.6875 -6.125 C 3.6875 -6.09375 3.664062 -6.050781 3.625 -6 C 3.40625 -5.476562 3.203125 -4.941406 3.015625 -4.390625 C 2.828125 -3.835938 2.707031 -3.382812 2.65625 -3.03125 C 2.632812 -2.90625 2.625 -2.742188 2.625 -2.546875 C 2.625 -2.078125 2.734375 -1.707031 2.953125 -1.4375 C 3.171875 -1.164062 3.460938 -1.03125 3.828125 -1.03125 C 4.085938 -1.03125 4.359375 -1.140625 4.640625 -1.359375 C 4.566406 -1.691406 4.53125 -2.09375 4.53125 -2.5625 C 4.53125 -3.09375 4.570312 -3.597656 4.65625 -4.078125 C 4.789062 -4.835938 4.96875 -5.390625 5.1875 -5.734375 C 5.414062 -6.085938 5.695312 -6.265625 6.03125 -6.265625 C 6.46875 -6.265625 6.6875 -5.957031 6.6875 -5.34375 C 6.6875 -5.164062 6.671875 -4.953125 6.640625 -4.703125 C 6.566406 -4.191406 6.4375 -3.679688 6.25 -3.171875 C 6.070312 -2.660156 5.847656 -2.1875 5.578125 -1.75 C 5.929688 -1.269531 6.390625 -1.03125 6.953125 -1.03125 C 7.367188 -1.03125 7.742188 -1.226562 8.078125 -1.625 C 8.421875 -2.019531 8.628906 -2.539062 8.703125 -3.1875 C 8.710938 -3.257812 8.71875 -3.363281 8.71875 -3.5 C 8.71875 -3.757812 8.675781 -3.976562 8.59375 -4.15625 C 8.507812 -4.332031 8.367188 -4.523438 8.171875 -4.734375 C 8.035156 -4.878906 7.929688 -5.015625 7.859375 -5.140625 C 7.796875 -5.265625 7.765625 -5.398438 7.765625 -5.546875 C 7.765625 -5.804688 7.84375 -6.003906 8 -6.140625 C 8.164062 -6.273438 8.378906 -6.34375 8.640625 -6.34375 Z M 5.046875 -4.1875 C 5.003906 -4.019531 4.984375 -3.832031 4.984375 -3.625 C 4.984375 -3.113281 5.097656 -2.625 5.328125 -2.15625 C 5.546875 -2.5 5.726562 -2.863281 5.875 -3.25 C 6.019531 -3.632812 6.09375 -3.972656 6.09375 -4.265625 C 6.09375 -4.648438 5.9375 -4.84375 5.625 -4.84375 C 5.488281 -4.84375 5.367188 -4.796875 5.265625 -4.703125 C 5.171875 -4.609375 5.097656 -4.4375 5.046875 -4.1875 Z M 5.046875 -4.1875 "/></g></g></g><g fill="#004aad" fill-opacity="1"><g transform="translate(302.210321, 241.762559)"><g><path d="M 6.640625 -1.234375 C 6.648438 -1.242188 6.664062 -1.25 6.6875 -1.25 C 6.71875 -1.25 6.742188 -1.226562 6.765625 -1.1875 C 6.785156 -1.15625 6.785156 -1.128906 6.765625 -1.109375 C 6.085938 -0.273438 5.488281 0.140625 4.96875 0.140625 C 4.695312 0.140625 4.492188 0.0664062 4.359375 -0.078125 C 4.234375 -0.234375 4.171875 -0.476562 4.171875 -0.8125 C 4.171875 -1 4.1875 -1.203125 4.21875 -1.421875 L 4.421875 -2.515625 C 4.015625 -1.660156 3.53125 -0.992188 2.96875 -0.515625 C 2.40625 -0.0351562 1.859375 0.203125 1.328125 0.203125 C 0.992188 0.203125 0.726562 0.101562 0.53125 -0.09375 C 0.34375 -0.300781 0.25 -0.609375 0.25 -1.015625 C 0.25 -1.722656 0.488281 -2.5 0.96875 -3.34375 C 1.445312 -4.195312 2.035156 -4.914062 2.734375 -5.5 C 3.429688 -6.09375 4.085938 -6.390625 4.703125 -6.390625 C 4.890625 -6.390625 5.085938 -6.351562 5.296875 -6.28125 C 5.503906 -6.207031 5.6875 -6.101562 5.84375 -5.96875 C 6.039062 -6.113281 6.207031 -6.296875 6.34375 -6.515625 C 6.363281 -6.535156 6.382812 -6.546875 6.40625 -6.546875 C 6.4375 -6.546875 6.46875 -6.535156 6.5 -6.515625 C 6.53125 -6.492188 6.539062 -6.476562 6.53125 -6.46875 L 5.59375 -1.421875 C 5.5625 -1.285156 5.546875 -1.164062 5.546875 -1.0625 C 5.546875 -0.800781 5.625 -0.671875 5.78125 -0.671875 C 5.976562 -0.671875 6.265625 -0.859375 6.640625 -1.234375 Z M 2.359375 -0.953125 C 2.671875 -0.953125 2.992188 -1.117188 3.328125 -1.453125 C 3.671875 -1.796875 3.96875 -2.207031 4.21875 -2.6875 C 4.46875 -3.175781 4.628906 -3.628906 4.703125 -4.046875 C 4.734375 -4.222656 4.75 -4.382812 4.75 -4.53125 C 4.75 -4.875 4.671875 -5.132812 4.515625 -5.3125 C 4.359375 -5.5 4.144531 -5.59375 3.875 -5.59375 C 3.382812 -5.59375 2.945312 -5.328125 2.5625 -4.796875 C 2.1875 -4.273438 1.925781 -3.59375 1.78125 -2.75 C 1.726562 -2.40625 1.703125 -2.148438 1.703125 -1.984375 C 1.703125 -1.628906 1.757812 -1.367188 1.875 -1.203125 C 1.988281 -1.035156 2.148438 -0.953125 2.359375 -0.953125 Z M 2.359375 -0.953125 "/></g></g></g><g fill="#004aad" fill-opacity="1"><g transform="translate(314.112599, 241.762559)"><g><path d="M 5.890625 -6.34375 C 6.148438 -6.34375 6.351562 -6.242188 6.5 -6.046875 C 6.65625 -5.859375 6.734375 -5.582031 6.734375 -5.21875 C 6.734375 -4.425781 6.300781 -3.234375 5.4375 -1.640625 C 4.570312 -0.0546875 3.582031 1.359375 2.46875 2.609375 C 1.363281 3.867188 0.460938 4.5 -0.234375 4.5 C -0.867188 4.5 -1.1875 4.25 -1.1875 3.75 C -1.1875 3.445312 -1.101562 3.210938 -0.9375 3.046875 C -0.769531 2.878906 -0.535156 2.796875 -0.234375 2.796875 C -0.078125 2.796875 0.140625 2.859375 0.421875 2.984375 C 0.453125 3.003906 0.53125 3.039062 0.65625 3.09375 C 0.78125 3.144531 0.910156 3.171875 1.046875 3.171875 C 1.222656 3.171875 1.398438 3.101562 1.578125 2.96875 C 1.859375 2.789062 2.207031 2.429688 2.625 1.890625 L 2.625 1.140625 C 2.625 -0.941406 2.476562 -2.554688 2.1875 -3.703125 C 1.894531 -4.847656 1.503906 -5.421875 1.015625 -5.421875 C 0.878906 -5.421875 0.742188 -5.375 0.609375 -5.28125 C 0.484375 -5.1875 0.375 -5.066406 0.28125 -4.921875 C 0.269531 -4.890625 0.238281 -4.875 0.1875 -4.875 C 0.113281 -4.875 0.0820312 -4.90625 0.09375 -4.96875 C 0.28125 -5.351562 0.554688 -5.671875 0.921875 -5.921875 C 1.296875 -6.179688 1.640625 -6.3125 1.953125 -6.3125 C 2.359375 -6.3125 2.710938 -6.070312 3.015625 -5.59375 C 3.316406 -5.125 3.546875 -4.476562 3.703125 -3.65625 C 3.859375 -2.832031 3.9375 -1.90625 3.9375 -0.875 C 3.9375 -0.46875 3.929688 -0.160156 3.921875 0.046875 C 4.335938 -0.609375 4.695312 -1.222656 5 -1.796875 C 5.300781 -2.367188 5.484375 -2.789062 5.546875 -3.0625 C 5.609375 -3.3125 5.640625 -3.53125 5.640625 -3.71875 C 5.640625 -3.9375 5.609375 -4.113281 5.546875 -4.25 C 5.484375 -4.394531 5.394531 -4.554688 5.28125 -4.734375 C 5.175781 -4.890625 5.09375 -5.019531 5.03125 -5.125 C 4.976562 -5.226562 4.953125 -5.359375 4.953125 -5.515625 C 4.953125 -5.765625 5.035156 -5.960938 5.203125 -6.109375 C 5.378906 -6.265625 5.609375 -6.34375 5.890625 -6.34375 Z M 5.890625 -6.34375 "/></g></g></g><g fill="#004aad" fill-opacity="1"><g transform="translate(326.158855, 241.762559)"><g><path d="M 1.734375 0.171875 C 1.273438 0.171875 0.882812 0.0703125 0.5625 -0.125 C 0.238281 -0.332031 0.078125 -0.578125 0.078125 -0.859375 C 0.078125 -1.109375 0.144531 -1.296875 0.28125 -1.421875 C 0.425781 -1.554688 0.597656 -1.625 0.796875 -1.625 C 0.984375 -1.625 1.128906 -1.578125 1.234375 -1.484375 C 1.335938 -1.390625 1.457031 -1.238281 1.59375 -1.03125 C 1.738281 -0.800781 1.867188 -0.632812 1.984375 -0.53125 C 2.109375 -0.425781 2.28125 -0.375 2.5 -0.375 C 2.675781 -0.375 2.8125 -0.421875 2.90625 -0.515625 C 3 -0.617188 3.0625 -0.785156 3.09375 -1.015625 C 3.101562 -1.054688 3.109375 -1.117188 3.109375 -1.203125 C 3.109375 -1.503906 3.015625 -1.769531 2.828125 -2 C 2.648438 -2.226562 2.367188 -2.488281 1.984375 -2.78125 C 1.597656 -3.101562 1.3125 -3.378906 1.125 -3.609375 C 0.9375 -3.835938 0.84375 -4.113281 0.84375 -4.4375 C 0.84375 -4.5 0.851562 -4.59375 0.875 -4.71875 C 0.925781 -4.988281 1.0625 -5.242188 1.28125 -5.484375 C 1.5 -5.734375 1.78125 -5.9375 2.125 -6.09375 C 2.476562 -6.257812 2.859375 -6.34375 3.265625 -6.34375 C 3.773438 -6.34375 4.171875 -6.253906 4.453125 -6.078125 C 4.734375 -5.910156 4.859375 -5.675781 4.828125 -5.375 C 4.796875 -5.175781 4.707031 -5.015625 4.5625 -4.890625 C 4.425781 -4.773438 4.273438 -4.71875 4.109375 -4.71875 C 3.890625 -4.71875 3.722656 -4.769531 3.609375 -4.875 C 3.503906 -4.976562 3.410156 -5.125 3.328125 -5.3125 C 3.234375 -5.5 3.132812 -5.640625 3.03125 -5.734375 C 2.9375 -5.835938 2.785156 -5.890625 2.578125 -5.890625 C 2.398438 -5.890625 2.265625 -5.835938 2.171875 -5.734375 C 2.078125 -5.628906 2.019531 -5.515625 2 -5.390625 C 1.988281 -5.347656 1.984375 -5.285156 1.984375 -5.203125 C 1.984375 -4.921875 2.070312 -4.671875 2.25 -4.453125 C 2.4375 -4.242188 2.71875 -3.992188 3.09375 -3.703125 C 3.5 -3.367188 3.796875 -3.082031 3.984375 -2.84375 C 4.171875 -2.601562 4.265625 -2.320312 4.265625 -2 C 4.265625 -1.945312 4.253906 -1.859375 4.234375 -1.734375 C 4.179688 -1.441406 4.039062 -1.148438 3.8125 -0.859375 C 3.59375 -0.566406 3.300781 -0.320312 2.9375 -0.125 C 2.570312 0.0703125 2.171875 0.171875 1.734375 0.171875 Z M 1.734375 0.171875 "/></g></g></g></svg>